<?xml version="1.0" encoding="utf-8"?>
<!-- Generator: Adobe Illustrator 27.5.0, SVG Export Plug-In . SVG Version: 6.00 Build 0)  -->
<svg version="1.1" xmlns="http://www.w3.org/2000/svg" xmlns:xlink="http://www.w3.org/1999/xlink" x="0px" y="0px"
	 viewBox="0 0 750 500" style="enable-background:new 0 0 750 500;" xml:space="preserve">
<g id="BACKGROUND">
	<rect x="-0.001" style="fill:#FFFFFF;" width="750" height="500"/>
</g>
<g id="OBJECTS">
	<g>
		<text transform="matrix(1 0 0 1 109.5017 145.6602)" style="fill:#396254; font-family:'Montserrat-Bold'; font-size:17.4743px;">spring forward</text>
		<g>
			<g>
				<path style="fill:none;stroke:#BABF31;stroke-width:2;stroke-linecap:round;stroke-miterlimit:10;" d="M47.859,344.996
					c0,0,24.355,15.808,29.216,53.573"/>
				<g>
					<g>
						<path style="fill:#FFC543;" d="M46.066,334.831c0.009,3.641,2.969,6.586,6.611,6.576c3.641-0.009,6.586-2.969,6.576-6.611
							c-0.01-3.641-2.969-6.586-6.611-6.576C49,328.23,46.056,331.189,46.066,334.831z"/>
						<path style="fill:#FFC543;" d="M46.119,355.197c0.01,3.641,2.969,6.586,6.611,6.576c3.641-0.009,6.586-2.969,6.576-6.611
							c-0.009-3.641-2.969-6.586-6.611-6.576C49.054,348.596,46.109,351.556,46.119,355.197z"/>
						<path style="fill:#FFC543;" d="M42.52,351.617c3.641-0.01,6.586-2.969,6.576-6.611c-0.01-3.641-2.969-6.586-6.611-6.576
							c-3.641,0.009-6.586,2.969-6.576,6.611C35.919,348.682,38.878,351.626,42.52,351.617z"/>
						<path style="fill:#FFC543;" d="M62.886,351.563c3.641-0.01,6.586-2.969,6.576-6.611c-0.01-3.641-2.969-6.586-6.611-6.576
							c-3.641,0.01-6.585,2.969-6.576,6.611C56.285,348.629,59.244,351.573,62.886,351.563z"/>
						<circle style="fill:#FFC543;" cx="45.466" cy="337.815" r="6.593"/>
						<path style="fill:#FFC543;" d="M55.255,356.853c2.582,2.568,6.756,2.557,9.324-0.025c2.568-2.582,2.557-6.756-0.024-9.324
							c-2.582-2.568-6.756-2.557-9.324,0.024C52.662,350.11,52.673,354.284,55.255,356.853z"/>
						<path style="fill:#FFC543;" d="M50.178,356.866c2.568-2.582,2.557-6.756-0.024-9.324c-2.582-2.568-6.756-2.557-9.324,0.024
							c-2.568,2.582-2.557,6.756,0.024,9.324C43.436,359.458,47.61,359.448,50.178,356.866z"/>
						<path style="fill:#FFC543;" d="M64.542,342.427c2.568-2.582,2.557-6.756-0.024-9.324c-2.582-2.568-6.756-2.557-9.324,0.024
							s-2.557,6.756,0.024,9.324C57.799,345.02,61.973,345.009,64.542,342.427z"/>
					</g>
					<path style="fill:#FF8843;" d="M46.123,345.014c-0.01-3.625,2.921-6.571,6.546-6.58c3.625-0.009,6.571,2.921,6.58,6.546
						c0.009,3.625-2.921,6.571-6.546,6.58C49.078,351.569,46.132,348.638,46.123,345.014z"/>
				</g>
				<path style="fill:#BABF31;" d="M73.653,381.317c0,0-5.32-15.304-20.968-10.33C58.599,386.787,73.653,381.317,73.653,381.317z"/>
			</g>
			<path style="fill:#BABF31;" d="M157.055,420.698H27.688c0,0,0.146-17.721,24.107-11.759
				c-14.046-24.503,21.213-30.295,34.154,0.287C100.603,396.009,144.392,401.587,157.055,420.698z"/>
			<g>
				<path style="fill:none;stroke:#BABF31;stroke-width:2;stroke-linecap:round;stroke-miterlimit:10;" d="M339.951,344.996
					c0,0-24.355,15.808-29.216,53.573"/>
				<g>
					<g>
						<path style="fill:#FFC543;" d="M341.744,334.831c-0.01,3.641-2.969,6.586-6.611,6.576c-3.641-0.009-6.586-2.969-6.576-6.611
							c0.01-3.641,2.969-6.586,6.611-6.576C338.809,328.23,341.754,331.189,341.744,334.831z"/>
						<path style="fill:#FFC543;" d="M341.691,355.197c-0.01,3.641-2.969,6.586-6.611,6.576c-3.641-0.009-6.586-2.969-6.576-6.611
							c0.009-3.641,2.969-6.586,6.611-6.576C338.756,348.596,341.7,351.556,341.691,355.197z"/>
						<path style="fill:#FFC543;" d="M345.29,351.617c-3.641-0.01-6.586-2.969-6.576-6.611c0.009-3.641,2.969-6.586,6.611-6.576
							c3.641,0.009,6.586,2.969,6.576,6.611C351.891,348.682,348.931,351.626,345.29,351.617z"/>
						<path style="fill:#FFC543;" d="M324.924,351.563c-3.641-0.01-6.586-2.969-6.576-6.611c0.009-3.641,2.969-6.586,6.611-6.576
							c3.641,0.01,6.586,2.969,6.576,6.611C331.525,348.629,328.565,351.573,324.924,351.563z"/>
						<path style="fill:#FFC543;" d="M346.993,342.489c-2.582,2.568-6.756,2.557-9.324-0.024c-2.568-2.582-2.557-6.756,0.024-9.324
							c2.582-2.568,6.756-2.557,9.324,0.024C349.586,335.746,349.575,339.921,346.993,342.489z"/>
						
							<ellipse transform="matrix(0.5686 -0.8226 0.8226 0.5686 -148.2465 421.6837)" style="fill:#FFC543;" cx="327.905" cy="352.178" rx="6.593" ry="6.593"/>
						<path style="fill:#FFC543;" d="M337.631,356.866c-2.568-2.582-2.557-6.756,0.024-9.324c2.582-2.568,6.756-2.557,9.324,0.024
							c2.568,2.582,2.557,6.756-0.024,9.324C344.374,359.458,340.199,359.448,337.631,356.866z"/>
						<path style="fill:#FFC543;" d="M323.268,342.427c-2.568-2.582-2.557-6.756,0.024-9.324c2.582-2.568,6.756-2.557,9.324,0.024
							c2.568,2.582,2.557,6.756-0.024,9.324C330.011,345.02,325.836,345.009,323.268,342.427z"/>
					</g>
					<path style="fill:#FF8843;" d="M341.687,345.014c0.01-3.625-2.921-6.571-6.546-6.58c-3.625-0.009-6.571,2.921-6.58,6.546
						c-0.009,3.625,2.921,6.571,6.546,6.58C338.731,351.569,341.677,348.638,341.687,345.014z"/>
				</g>
				<path style="fill:#BABF31;" d="M314.156,381.317c0,0,5.32-15.304,20.968-10.33C329.211,386.787,314.156,381.317,314.156,381.317
					z"/>
			</g>
			<path style="fill:#BABF31;" d="M230.754,420.698h129.367c0,0-0.145-17.721-24.107-11.759
				c14.046-24.503-21.213-30.295-34.154,0.287C287.207,396.009,243.417,401.587,230.754,420.698z"/>
			<ellipse style="opacity:0.2;fill:#B84870;" cx="194.374" cy="441.166" rx="147.334" ry="17.839"/>
			<g>
				<polygon style="fill:#709F3F;" points="109.158,438.299 71.422,438.299 73.103,410.832 73.633,402.183 86.008,178.727 
					105.644,402.183 106.485,410.832 				"/>
				<polygon style="opacity:0.2;fill:#3C4870;" points="122.82,438.299 71.422,438.299 73.103,410.832 120.056,410.832 				"/>
				<polygon style="fill:#709F3F;" points="280.372,438.299 318.108,438.299 316.427,410.832 315.897,402.183 303.522,178.727 
					283.886,402.183 283.045,410.832 				"/>
				<polygon style="opacity:0.2;fill:#3C4870;" points="266.71,438.299 318.108,438.299 316.427,410.832 269.474,410.832 				"/>
				<g>
					<rect x="86.007" y="200.298" style="fill:#FF8843;" width="217.551" height="249.32"/>
					<rect x="86.007" y="190.689" style="fill:#FFC543;" width="217.551" height="239.149"/>
					<g>
						<circle style="fill:#FF8843;" cx="278.699" cy="235.4" r="15.911"/>
						<g>
							<polygon style="fill:#FFFFFF;" points="278.445,235.204 271.385,230.006 271.385,240.402 							"/>
							<polygon style="fill:#FFFFFF;" points="288.848,235.204 281.788,230.006 281.788,240.402 							"/>
						</g>
					</g>
					<rect x="86.007" y="178.725" style="fill:#BABF31;" width="217.551" height="30.316"/>
					<g>
						<circle style="opacity:0.2;fill:#3C4870;" cx="102.385" cy="188.943" r="5.587"/>
						<path style="opacity:0.2;fill:#3C4870;" d="M124.772,188.943c0-3.086-2.501-5.587-5.587-5.587
							c-3.086,0-5.587,2.502-5.587,5.587s2.502,5.587,5.587,5.587C122.27,194.53,124.772,192.029,124.772,188.943z"/>
						<circle style="opacity:0.2;fill:#3C4870;" cx="135.984" cy="188.943" r="5.587"/>
						<circle style="opacity:0.2;fill:#3C4870;" cx="152.783" cy="188.943" r="5.587"/>
						<path style="opacity:0.2;fill:#3C4870;" d="M175.17,188.943c0-3.086-2.501-5.587-5.587-5.587
							c-3.086,0-5.587,2.502-5.587,5.587s2.501,5.587,5.587,5.587C172.669,194.53,175.17,192.029,175.17,188.943z"/>
						<path style="opacity:0.2;fill:#3C4870;" d="M191.97,188.943c0-3.086-2.501-5.587-5.587-5.587
							c-3.086,0-5.587,2.502-5.587,5.587s2.502,5.587,5.587,5.587C189.468,194.53,191.97,192.029,191.97,188.943z"/>
						<circle style="opacity:0.2;fill:#3C4870;" cx="203.182" cy="188.943" r="5.587"/>
						<circle style="opacity:0.2;fill:#3C4870;" cx="219.982" cy="188.943" r="5.587"/>
						<path style="opacity:0.2;fill:#3C4870;" d="M242.368,188.943c0-3.086-2.501-5.587-5.587-5.587
							c-3.086,0-5.587,2.502-5.587,5.587s2.501,5.587,5.587,5.587C239.867,194.53,242.368,192.029,242.368,188.943z"/>
						<circle style="opacity:0.2;fill:#3C4870;" cx="253.581" cy="188.943" r="5.587"/>
						<circle style="opacity:0.2;fill:#3C4870;" cx="270.38" cy="188.943" r="5.587"/>
						<path style="opacity:0.2;fill:#3C4870;" d="M292.767,188.943c0-3.086-2.501-5.587-5.587-5.587
							c-3.086,0-5.587,2.502-5.587,5.587s2.501,5.587,5.587,5.587C290.266,194.53,292.767,192.029,292.767,188.943z"/>
					</g>
					<g>
						<path style="fill:#396254;" d="M102.385,166.544L102.385,166.544c-2.007,0-3.635,1.627-3.635,3.635v18.453
							c0,2.007,1.627,3.635,3.635,3.635l0,0c2.007,0,3.635-1.627,3.635-3.635v-18.453
							C106.02,168.171,104.392,166.544,102.385,166.544z"/>
						<path style="fill:#396254;" d="M119.185,166.544L119.185,166.544c-2.007,0-3.635,1.627-3.635,3.635v18.453
							c0,2.007,1.627,3.635,3.635,3.635h0c2.007,0,3.635-1.627,3.635-3.635v-18.453
							C122.819,168.171,121.192,166.544,119.185,166.544z"/>
						<path style="fill:#396254;" d="M135.984,166.544L135.984,166.544c-2.007,0-3.635,1.627-3.635,3.635v18.453
							c0,2.007,1.627,3.635,3.635,3.635l0,0c2.007,0,3.635-1.627,3.635-3.635v-18.453
							C139.619,168.171,137.991,166.544,135.984,166.544z"/>
						<path style="fill:#396254;" d="M152.783,166.544L152.783,166.544c-2.007,0-3.635,1.627-3.635,3.635v18.453
							c0,2.007,1.627,3.635,3.635,3.635l0,0c2.007,0,3.635-1.627,3.635-3.635v-18.453
							C156.418,168.171,154.791,166.544,152.783,166.544z"/>
						<path style="fill:#396254;" d="M169.583,166.544L169.583,166.544c-2.007,0-3.635,1.627-3.635,3.635v18.453
							c0,2.007,1.627,3.635,3.635,3.635l0,0c2.007,0,3.635-1.627,3.635-3.635v-18.453
							C173.218,168.171,171.59,166.544,169.583,166.544z"/>
						<path style="fill:#396254;" d="M186.383,166.544L186.383,166.544c-2.007,0-3.635,1.627-3.635,3.635v18.453
							c0,2.007,1.627,3.635,3.635,3.635l0,0c2.007,0,3.635-1.627,3.635-3.635v-18.453
							C190.017,168.171,188.39,166.544,186.383,166.544z"/>
						<path style="fill:#396254;" d="M203.182,166.544L203.182,166.544c-2.007,0-3.635,1.627-3.635,3.635v18.453
							c0,2.007,1.627,3.635,3.635,3.635l0,0c2.007,0,3.635-1.627,3.635-3.635v-18.453
							C206.817,168.171,205.189,166.544,203.182,166.544z"/>
						<path style="fill:#396254;" d="M219.982,166.544L219.982,166.544c-2.007,0-3.635,1.627-3.635,3.635v18.453
							c0,2.007,1.627,3.635,3.635,3.635l0,0c2.007,0,3.635-1.627,3.635-3.635v-18.453
							C223.616,168.171,221.989,166.544,219.982,166.544z"/>
						<path style="fill:#396254;" d="M236.781,166.544L236.781,166.544c-2.007,0-3.635,1.627-3.635,3.635v18.453
							c0,2.007,1.627,3.635,3.635,3.635l0,0c2.007,0,3.635-1.627,3.635-3.635v-18.453
							C240.416,168.171,238.788,166.544,236.781,166.544z"/>
						<path style="fill:#396254;" d="M253.581,166.544L253.581,166.544c-2.007,0-3.635,1.627-3.635,3.635v18.453
							c0,2.007,1.627,3.635,3.635,3.635l0,0c2.007,0,3.635-1.627,3.635-3.635v-18.453
							C257.215,168.171,255.588,166.544,253.581,166.544z"/>
						<path style="fill:#396254;" d="M270.38,166.544L270.38,166.544c-2.007,0-3.635,1.627-3.635,3.635v18.453
							c0,2.007,1.627,3.635,3.635,3.635l0,0c2.007,0,3.635-1.627,3.635-3.635v-18.453
							C274.015,168.171,272.388,166.544,270.38,166.544z"/>
						<path style="fill:#396254;" d="M287.18,166.544L287.18,166.544c-2.007,0-3.635,1.627-3.635,3.635v18.453
							c0,2.007,1.627,3.635,3.635,3.635l0,0c2.007,0,3.635-1.627,3.635-3.635v-18.453
							C290.814,168.171,289.187,166.544,287.18,166.544z"/>
					</g>
					<path style="opacity:0.2;fill:#3C4870;" d="M242.623,200.153h-95.681c-0.759,0-1.374,0.615-1.374,1.373l0,0
						c0,0.758,0.615,1.373,1.374,1.373h95.681c0.758,0,1.373-0.615,1.373-1.373l0,0
						C243.996,200.768,243.381,200.153,242.623,200.153z"/>
				</g>
				<g>
					
						<ellipse transform="matrix(0.7071 -0.7071 0.7071 0.7071 -168.4816 231.1503)" style="fill:#BABF31;" cx="194.782" cy="318.95" rx="85.622" ry="85.622"/>
					<circle style="opacity:0.2;fill:#3C4870;" cx="194.782" cy="318.95" r="71.963"/>
					<path style="fill:#FFFFFF;" d="M259.167,318.95c0,35.563-28.823,64.386-64.386,64.386c-35.555,0-64.385-28.823-64.385-64.386
						s28.83-64.386,64.385-64.386c23.81,0,44.605,12.92,55.745,32.14C256.024,296.186,259.167,307.197,259.167,318.95z"/>
					<path style="fill:#BBE9F8;" d="M259.167,318.95h-64.386l55.745-32.246C256.024,296.186,259.167,307.197,259.167,318.95z"/>
					<g>
						<path style="fill:#332D65;" d="M240.23,327.477c-0.77,0.041-1.427-0.55-1.468-1.319c-1.249-23.439-11.21-40.619-11.311-40.79
							c-0.391-0.664-0.169-1.519,0.495-1.91c0.663-0.39,1.519-0.169,1.91,0.495c0.424,0.721,10.407,17.944,11.692,42.057
							C241.59,326.779,240.999,327.436,240.23,327.477z"/>
						<polyline style="fill:#332D65;" points="235.683,325.328 240.338,329.513 244.523,324.857 						"/>
					</g>
					<g>
						<g>
							<polyline style="fill:none;stroke:#332D65;stroke-width:4;stroke-linecap:round;stroke-miterlimit:10;" points="
								194.782,279.363 194.782,318.95 212.072,308.949 							"/>
							<g>
								<polygon style="fill:#332D65;" points="188.857,283.857 194.782,281.34 200.707,283.857 194.782,269.812 								"/>
							</g>
							<g>
								<polygon style="fill:#332D65;" points="211.148,316.328 210.361,309.939 205.215,306.07 220.339,304.166 								"/>
							</g>
						</g>
					</g>
					
						<ellipse transform="matrix(0.7071 -0.7071 0.7071 0.7071 -168.4816 231.1503)" style="fill:#396254;" cx="194.782" cy="318.95" rx="11.063" ry="11.063"/>
					<path style="fill:#BABF31;" d="M199.376,318.95c0-2.537-2.057-4.594-4.594-4.594s-4.594,2.057-4.594,4.594
						c0,2.537,2.057,4.594,4.594,4.594S199.376,321.487,199.376,318.95z"/>
					<g>
						<g>
							<g>
								<path style="fill:#396254;" d="M168.848,268.405c-0.777-1.345-2.497-1.806-3.842-1.03c-1.345,0.777-1.806,2.497-1.03,3.842
									c0.777,1.345,2.497,1.806,3.842,1.029C169.164,271.471,169.624,269.751,168.848,268.405z"/>
								<path style="fill:#396254;" d="M225.588,366.683c-0.777-1.345-2.497-1.806-3.842-1.029c-1.345,0.777-1.806,2.497-1.03,3.842
									c0.777,1.345,2.497,1.806,3.842,1.029C225.904,369.748,226.365,368.028,225.588,366.683z"/>
							</g>
							<g>
								<path style="fill:#396254;" d="M245.327,293.016c1.345-0.777,1.806-2.497,1.03-3.842c-0.777-1.345-2.497-1.806-3.842-1.03
									c-1.345,0.777-1.806,2.497-1.029,3.842C242.262,293.332,243.982,293.793,245.327,293.016z"/>
								<path style="fill:#396254;" d="M147.05,349.757c1.345-0.777,1.806-2.497,1.03-3.842c-0.777-1.345-2.497-1.806-3.842-1.03
									c-1.345,0.777-1.806,2.497-1.029,3.842C143.984,350.072,145.705,350.533,147.05,349.757z"/>
							</g>
						</g>
						<g>
							<g>
								<path style="fill:#396254;" d="M147.05,288.144c-1.345-0.777-3.065-0.316-3.842,1.03s-0.316,3.065,1.029,3.842
									c1.345,0.777,3.066,0.316,3.842-1.03C148.856,290.641,148.395,288.921,147.05,288.144z"/>
								<path style="fill:#396254;" d="M245.327,344.885c-1.345-0.777-3.065-0.316-3.842,1.03c-0.777,1.345-0.316,3.065,1.029,3.842
									s3.066,0.316,3.842-1.03C247.134,347.382,246.673,345.662,245.327,344.885z"/>
							</g>
							<g>
								<path style="fill:#396254;" d="M225.588,271.218c0.777-1.345,0.316-3.065-1.029-3.842c-1.345-0.777-3.065-0.316-3.842,1.03
									s-0.316,3.065,1.03,3.842C223.092,273.024,224.812,272.563,225.588,271.218z"/>
								<path style="fill:#396254;" d="M168.848,369.496c0.777-1.345,0.316-3.065-1.029-3.842c-1.345-0.777-3.066-0.316-3.842,1.029
									s-0.316,3.065,1.03,3.842C166.351,371.302,168.071,370.841,168.848,369.496z"/>
							</g>
						</g>
						<g>
							<g>
								<path style="fill:#396254;" d="M138.042,316.138c-1.553,0-2.813,1.259-2.813,2.813s1.259,2.813,2.813,2.813
									c1.553,0,2.813-1.259,2.813-2.813S139.595,316.138,138.042,316.138z"/>
								<path style="fill:#396254;" d="M251.523,316.138c-1.553,0-2.813,1.259-2.813,2.813s1.259,2.813,2.813,2.813
									c1.553,0,2.813-1.259,2.813-2.813S253.076,316.138,251.523,316.138z"/>
							</g>
							<g>
								<path style="fill:#396254;" d="M197.595,262.21c0-1.553-1.259-2.813-2.813-2.813c-1.553,0-2.813,1.259-2.813,2.813
									c0,1.553,1.259,2.813,2.813,2.813C196.336,265.022,197.595,263.763,197.595,262.21z"/>
								<path style="fill:#396254;" d="M197.595,375.691c0-1.553-1.259-2.813-2.813-2.813c-1.553,0-2.813,1.259-2.813,2.813
									c0,1.553,1.259,2.813,2.813,2.813C196.336,378.504,197.595,377.244,197.595,375.691z"/>
							</g>
						</g>
					</g>
				</g>
				<g>
					<g>
						<circle style="fill:#FF8843;" cx="112.616" cy="406.144" r="15.911"/>
					</g>
					
						<text transform="matrix(1 0 0 1 102.4363 412.2753)" style="fill:#FFFFFF; font-family:'Montserrat-Bold'; font-size:18.7916px;">+1</text>
				</g>
			</g>
		</g>
	</g>
	<g>
		<text transform="matrix(1 0 0 1 503.0965 145.6602)" style="fill:#A63009; font-family:'Montserrat-Bold'; font-size:17.4743px;">fall back</text>
		<g>
			<g>
				<path style="fill:#FF8843;" d="M439.939,399.509c-0.465,0-0.869-0.346-0.93-0.819c-4.744-36.857-28.557-52.749-28.796-52.905
					c-0.435-0.283-0.558-0.865-0.276-1.299c0.283-0.435,0.864-0.559,1.299-0.276c0.247,0.16,24.776,16.481,29.636,54.24
					c0.066,0.514-0.297,0.985-0.811,1.052C440.02,399.506,439.979,399.509,439.939,399.509z"/>
				<g>
					<g>
						<path style="fill:#CC3609;" d="M408.932,334.831c0.009,3.641,2.969,6.586,6.611,6.576c3.641-0.009,6.586-2.969,6.576-6.611
							c-0.009-3.641-2.969-6.586-6.611-6.576C411.866,328.23,408.922,331.189,408.932,334.831z"/>
						<path style="fill:#CC3609;" d="M408.985,355.197c0.01,3.641,2.969,6.586,6.611,6.576c3.641-0.009,6.586-2.969,6.576-6.611
							c-0.009-3.641-2.969-6.586-6.611-6.576C411.92,348.596,408.975,351.556,408.985,355.197z"/>
						<path style="fill:#CC3609;" d="M405.386,351.617c3.641-0.01,6.586-2.969,6.576-6.611c-0.01-3.641-2.969-6.586-6.611-6.576
							c-3.641,0.009-6.586,2.969-6.576,6.611C398.785,348.682,401.745,351.626,405.386,351.617z"/>
						<path style="fill:#CC3609;" d="M425.752,351.563c3.641-0.01,6.586-2.969,6.576-6.611c-0.01-3.641-2.969-6.586-6.611-6.576
							c-3.641,0.01-6.586,2.969-6.576,6.611C419.151,348.629,422.111,351.573,425.752,351.563z"/>
						<circle style="fill:#CC3609;" cx="408.332" cy="337.815" r="6.593"/>
						<path style="fill:#CC3609;" d="M418.121,356.853c2.582,2.568,6.756,2.557,9.324-0.025c2.568-2.582,2.557-6.756-0.024-9.324
							c-2.582-2.568-6.756-2.557-9.324,0.024C415.529,350.11,415.539,354.284,418.121,356.853z"/>
						<path style="fill:#CC3609;" d="M413.044,356.866c2.568-2.582,2.557-6.756-0.025-9.324c-2.582-2.568-6.756-2.557-9.324,0.024
							c-2.568,2.582-2.557,6.756,0.024,9.324C406.302,359.458,410.476,359.448,413.044,356.866z"/>
						<path style="fill:#CC3609;" d="M427.408,342.427c2.568-2.582,2.557-6.756-0.024-9.324c-2.582-2.568-6.756-2.557-9.324,0.024
							c-2.568,2.582-2.557,6.756,0.024,9.324C420.665,345.02,424.84,345.009,427.408,342.427z"/>
					</g>
					<path style="fill:#FFC543;" d="M408.989,345.014c-0.01-3.625,2.921-6.571,6.546-6.58c3.625-0.009,6.571,2.921,6.58,6.546
						c0.01,3.625-2.921,6.571-6.546,6.58C411.944,351.569,408.998,348.638,408.989,345.014z"/>
				</g>
				<path style="fill:#FF8843;" d="M436.519,381.317c0,0-5.32-15.304-20.968-10.33C421.465,386.787,436.519,381.317,436.519,381.317
					z"/>
			</g>
			<path style="fill:#FF8843;" d="M519.921,420.698H390.554c0,0,0.146-17.721,24.107-11.759
				c-14.046-24.503,21.213-30.295,34.154,0.287C463.469,396.009,507.259,401.587,519.921,420.698z"/>
			<g>
				<path style="fill:#FF8843;" d="M673.603,399.509c-0.04,0-0.081-0.003-0.121-0.007c-0.514-0.067-0.878-0.537-0.812-1.052
					c2.538-19.716,10.438-33.397,16.619-41.401c6.717-8.699,12.763-12.674,13.017-12.839c0.435-0.282,1.016-0.159,1.298,0.276
					c0.282,0.435,0.159,1.016-0.276,1.299c-0.24,0.156-24.052,16.048-28.796,52.905
					C674.471,399.163,674.068,399.509,673.603,399.509z"/>
				<g>
					<g>
						<path style="fill:#CC3609;" d="M704.61,334.831c-0.01,3.641-2.969,6.586-6.611,6.576c-3.641-0.009-6.586-2.969-6.576-6.611
							c0.01-3.641,2.969-6.586,6.611-6.576C701.675,328.23,704.62,331.189,704.61,334.831z"/>
						<path style="fill:#CC3609;" d="M704.557,355.197c-0.01,3.641-2.969,6.586-6.611,6.576c-3.641-0.009-6.586-2.969-6.576-6.611
							c0.01-3.641,2.969-6.586,6.611-6.576C701.622,348.596,704.566,351.556,704.557,355.197z"/>
						<path style="fill:#CC3609;" d="M708.156,351.617c-3.641-0.01-6.586-2.969-6.576-6.611c0.01-3.641,2.969-6.586,6.611-6.576
							c3.641,0.009,6.586,2.969,6.576,6.611C714.757,348.682,711.797,351.626,708.156,351.617z"/>
						<path style="fill:#CC3609;" d="M687.79,351.563c-3.641-0.01-6.586-2.969-6.576-6.611c0.01-3.641,2.969-6.586,6.611-6.576
							c3.641,0.01,6.586,2.969,6.576,6.611C694.391,348.629,691.431,351.573,687.79,351.563z"/>
						<path style="fill:#CC3609;" d="M709.859,342.489c-2.582,2.568-6.756,2.557-9.324-0.024c-2.568-2.582-2.557-6.756,0.024-9.324
							c2.582-2.568,6.756-2.557,9.324,0.024C712.452,335.746,712.441,339.921,709.859,342.489z"/>
						
							<ellipse transform="matrix(0.5686 -0.8226 0.8226 0.5686 8.3034 720.1891)" style="fill:#CC3609;" cx="690.771" cy="352.178" rx="6.593" ry="6.593"/>
						<path style="fill:#CC3609;" d="M700.497,356.866c-2.568-2.582-2.557-6.756,0.024-9.324c2.582-2.568,6.756-2.557,9.324,0.024
							c2.568,2.582,2.557,6.756-0.024,9.324C707.24,359.458,703.065,359.448,700.497,356.866z"/>
						
							<ellipse transform="matrix(0.5686 -0.8226 0.8226 0.5686 20.1664 714.0071)" style="fill:#CC3609;" cx="690.808" cy="337.777" rx="6.593" ry="6.593"/>
					</g>
					<path style="fill:#FFC543;" d="M704.553,345.014c0.01-3.625-2.921-6.571-6.546-6.58c-3.625-0.009-6.571,2.921-6.58,6.546
						c-0.01,3.625,2.921,6.571,6.546,6.58C701.597,351.569,704.544,348.638,704.553,345.014z"/>
				</g>
				<path style="fill:#FF8843;" d="M677.022,381.317c0,0,5.32-15.304,20.968-10.33C692.077,386.787,677.022,381.317,677.022,381.317
					z"/>
			</g>
			<path style="fill:#FF8843;" d="M593.62,420.698h129.367c0,0-0.145-17.721-24.107-11.759
				c14.046-24.503-21.213-30.295-34.154,0.287C650.073,396.009,606.283,401.587,593.62,420.698z"/>
			<ellipse style="opacity:0.2;fill:#B84870;" cx="558.219" cy="441.166" rx="147.334" ry="17.839"/>
			<g>
				<polygon style="fill:#A63009;" points="472.024,438.299 434.288,438.299 435.969,410.832 436.5,402.183 448.874,178.727 
					468.51,402.183 469.351,410.832 				"/>
				<polygon style="opacity:0.2;fill:#3C4870;" points="485.686,438.299 434.288,438.299 435.969,410.832 482.922,410.832 				"/>
				<polygon style="fill:#A63009;" points="643.238,438.299 680.974,438.299 679.293,410.832 678.763,402.183 666.388,178.727 
					646.752,402.183 645.911,410.832 				"/>
				<polygon style="opacity:0.2;fill:#3C4870;" points="629.576,438.299 680.974,438.299 679.293,410.832 632.34,410.832 				"/>
				<g>
					<rect x="448.873" y="200.298" style="fill:#CC3609;" width="217.551" height="249.32"/>
					<rect x="448.873" y="190.689" style="fill:#F9E3D0;" width="217.551" height="239.149"/>
					<g>
						<circle style="fill:#CC3609;" cx="641.565" cy="235.4" r="15.911"/>
						<g>
							<polygon style="fill:#FFFFFF;" points="641.311,235.204 634.251,230.006 634.251,240.402 							"/>
							<polygon style="fill:#FFFFFF;" points="651.714,235.204 644.654,230.006 644.654,240.402 							"/>
						</g>
					</g>
					<rect x="448.873" y="178.725" style="fill:#A63009;" width="217.551" height="30.316"/>
					<g>
						<circle style="opacity:0.2;fill:#3C4870;" cx="465.251" cy="188.943" r="5.587"/>
						<path style="opacity:0.2;fill:#3C4870;" d="M487.638,188.943c0-3.086-2.501-5.587-5.587-5.587
							c-3.086,0-5.587,2.502-5.587,5.587s2.501,5.587,5.587,5.587C485.136,194.53,487.638,192.029,487.638,188.943z"/>
						<circle style="opacity:0.2;fill:#3C4870;" cx="498.85" cy="188.943" r="5.587"/>
						<circle style="opacity:0.2;fill:#3C4870;" cx="515.65" cy="188.943" r="5.587"/>
						<path style="opacity:0.2;fill:#3C4870;" d="M538.036,188.943c0-3.086-2.502-5.587-5.587-5.587
							c-3.086,0-5.587,2.502-5.587,5.587s2.501,5.587,5.587,5.587C535.535,194.53,538.036,192.029,538.036,188.943z"/>
						<path style="opacity:0.2;fill:#3C4870;" d="M554.836,188.943c0-3.086-2.502-5.587-5.587-5.587
							c-3.086,0-5.587,2.502-5.587,5.587s2.501,5.587,5.587,5.587C552.334,194.53,554.836,192.029,554.836,188.943z"/>
						<circle style="opacity:0.2;fill:#3C4870;" cx="566.048" cy="188.943" r="5.587"/>
						<circle style="opacity:0.2;fill:#3C4870;" cx="582.848" cy="188.943" r="5.587"/>
						<path style="opacity:0.2;fill:#3C4870;" d="M605.235,188.943c0-3.086-2.502-5.587-5.587-5.587
							c-3.086,0-5.587,2.502-5.587,5.587s2.502,5.587,5.587,5.587C602.733,194.53,605.235,192.029,605.235,188.943z"/>
						<circle style="opacity:0.2;fill:#3C4870;" cx="616.447" cy="188.943" r="5.587"/>
						<circle style="opacity:0.2;fill:#3C4870;" cx="633.246" cy="188.943" r="5.587"/>
						<path style="opacity:0.2;fill:#3C4870;" d="M655.633,188.943c0-3.086-2.501-5.587-5.587-5.587
							c-3.086,0-5.587,2.502-5.587,5.587s2.502,5.587,5.587,5.587C653.132,194.53,655.633,192.029,655.633,188.943z"/>
					</g>
					<g>
						<path style="fill:#CC3609;" d="M465.251,166.544L465.251,166.544c-2.007,0-3.635,1.627-3.635,3.635v18.453
							c0,2.007,1.627,3.635,3.635,3.635l0,0c2.007,0,3.635-1.627,3.635-3.635v-18.453
							C468.886,168.171,467.258,166.544,465.251,166.544z"/>
						<path style="fill:#CC3609;" d="M482.051,166.544L482.051,166.544c-2.007,0-3.635,1.627-3.635,3.635v18.453
							c0,2.007,1.627,3.635,3.635,3.635l0,0c2.007,0,3.635-1.627,3.635-3.635v-18.453
							C485.685,168.171,484.058,166.544,482.051,166.544z"/>
						<path style="fill:#CC3609;" d="M498.85,166.544L498.85,166.544c-2.007,0-3.635,1.627-3.635,3.635v18.453
							c0,2.007,1.627,3.635,3.635,3.635l0,0c2.007,0,3.635-1.627,3.635-3.635v-18.453
							C502.485,168.171,500.858,166.544,498.85,166.544z"/>
						<path style="fill:#CC3609;" d="M515.65,166.544L515.65,166.544c-2.007,0-3.635,1.627-3.635,3.635v18.453
							c0,2.007,1.627,3.635,3.635,3.635l0,0c2.007,0,3.635-1.627,3.635-3.635v-18.453
							C519.284,168.171,517.657,166.544,515.65,166.544z"/>
						<path style="fill:#CC3609;" d="M532.449,166.544L532.449,166.544c-2.007,0-3.635,1.627-3.635,3.635v18.453
							c0,2.007,1.627,3.635,3.635,3.635l0,0c2.007,0,3.635-1.627,3.635-3.635v-18.453
							C536.084,168.171,534.456,166.544,532.449,166.544z"/>
						<path style="fill:#CC3609;" d="M549.249,166.544L549.249,166.544c-2.007,0-3.635,1.627-3.635,3.635v18.453
							c0,2.007,1.627,3.635,3.635,3.635l0,0c2.007,0,3.635-1.627,3.635-3.635v-18.453
							C552.883,168.171,551.256,166.544,549.249,166.544z"/>
						<path style="fill:#CC3609;" d="M566.048,166.544L566.048,166.544c-2.007,0-3.635,1.627-3.635,3.635v18.453
							c0,2.007,1.627,3.635,3.635,3.635l0,0c2.007,0,3.635-1.627,3.635-3.635v-18.453
							C569.683,168.171,568.056,166.544,566.048,166.544z"/>
						<path style="fill:#CC3609;" d="M582.848,166.544L582.848,166.544c-2.007,0-3.635,1.627-3.635,3.635v18.453
							c0,2.007,1.627,3.635,3.635,3.635l0,0c2.007,0,3.635-1.627,3.635-3.635v-18.453
							C586.482,168.171,584.855,166.544,582.848,166.544z"/>
						<path style="fill:#CC3609;" d="M599.647,166.544L599.647,166.544c-2.007,0-3.635,1.627-3.635,3.635v18.453
							c0,2.007,1.627,3.635,3.635,3.635h0c2.007,0,3.635-1.627,3.635-3.635v-18.453
							C603.282,168.171,601.655,166.544,599.647,166.544z"/>
						<path style="fill:#CC3609;" d="M616.447,166.544L616.447,166.544c-2.007,0-3.635,1.627-3.635,3.635v18.453
							c0,2.007,1.627,3.635,3.635,3.635l0,0c2.007,0,3.635-1.627,3.635-3.635v-18.453
							C620.081,168.171,618.454,166.544,616.447,166.544z"/>
						<path style="fill:#CC3609;" d="M633.246,166.544L633.246,166.544c-2.007,0-3.635,1.627-3.635,3.635v18.453
							c0,2.007,1.627,3.635,3.635,3.635l0,0c2.007,0,3.635-1.627,3.635-3.635v-18.453
							C636.881,168.171,635.254,166.544,633.246,166.544z"/>
						<path style="fill:#CC3609;" d="M650.046,166.544L650.046,166.544c-2.007,0-3.635,1.627-3.635,3.635v18.453
							c0,2.007,1.627,3.635,3.635,3.635l0,0c2.007,0,3.635-1.627,3.635-3.635v-18.453
							C653.68,168.171,652.053,166.544,650.046,166.544z"/>
					</g>
					<path style="opacity:0.2;fill:#3C4870;" d="M605.489,200.153h-95.681c-0.759,0-1.374,0.615-1.374,1.373l0,0
						c0,0.758,0.615,1.373,1.374,1.373h95.681c0.759,0,1.373-0.615,1.373-1.373l0,0
						C606.862,200.768,606.247,200.153,605.489,200.153z"/>
				</g>
				<g>
					
						<ellipse transform="matrix(0.7071 -0.7071 0.7071 0.7071 -62.2006 487.7354)" style="fill:#CC3609;" cx="557.648" cy="318.95" rx="85.622" ry="85.622"/>
					<circle style="opacity:0.2;fill:#3C4870;" cx="557.648" cy="318.95" r="71.963"/>
					<path style="fill:#FFFFFF;" d="M622.033,318.95c0,35.563-28.823,64.386-64.386,64.386c-35.555,0-64.385-28.823-64.385-64.386
						s28.83-64.386,64.385-64.386c23.81,0,44.605,12.92,55.745,32.14C618.891,296.186,622.033,307.197,622.033,318.95z"/>
					<path style="fill:#BBE9F8;" d="M622.033,318.95h-64.386l55.745-32.246C618.891,296.186,622.033,307.197,622.033,318.95z"/>
					<g>
						<path style="fill:#332D65;" d="M591.033,286.292c-0.67,0.381-0.905,1.233-0.524,1.902
							c11.594,20.408,12.476,40.249,12.484,40.447c0.029,0.77,0.677,1.37,1.448,1.341c0.769-0.029,1.371-0.677,1.341-1.447
							c-0.032-0.836-0.919-20.724-12.846-41.719C592.554,286.146,591.703,285.911,591.033,286.292z"/>
						<polyline style="fill:#332D65;" points="588.364,290.555 590.026,284.52 596.061,286.182 						"/>
					</g>
					<g>
						<g>
							<polyline style="fill:none;stroke:#332D65;stroke-width:4;stroke-linecap:round;stroke-miterlimit:10;" points="
								557.648,279.363 557.648,318.95 576.467,318.95 							"/>
							<g>
								<polygon style="fill:#332D65;" points="551.723,283.857 557.648,281.34 563.573,283.857 557.648,269.812 								"/>
							</g>
							<g>
								<polygon style="fill:#332D65;" points="571.973,324.875 574.49,318.95 571.973,313.025 586.019,318.95 								"/>
							</g>
						</g>
					</g>
					
						<ellipse transform="matrix(0.7071 -0.7071 0.7071 0.7071 -62.2006 487.7354)" style="fill:#CC3609;" cx="557.648" cy="318.95" rx="11.063" ry="11.063"/>
					<path style="fill:#A63009;" d="M562.242,318.95c0-2.537-2.057-4.594-4.594-4.594c-2.537,0-4.594,2.057-4.594,4.594
						c0,2.537,2.057,4.594,4.594,4.594C560.185,323.544,562.242,321.487,562.242,318.95z"/>
					<g>
						<g>
							<g>
								<path style="fill:#A63009;" d="M531.714,268.405c-0.777-1.345-2.497-1.806-3.842-1.03c-1.345,0.777-1.806,2.497-1.03,3.842
									c0.777,1.345,2.497,1.806,3.842,1.029C532.03,271.471,532.491,269.751,531.714,268.405z"/>
								<path style="fill:#A63009;" d="M588.455,366.683c-0.777-1.345-2.497-1.806-3.842-1.029c-1.345,0.777-1.806,2.497-1.03,3.842
									c0.777,1.345,2.497,1.806,3.842,1.029C588.77,369.748,589.231,368.028,588.455,366.683z"/>
							</g>
							<g>
								<path style="fill:#A63009;" d="M608.193,293.016c1.345-0.777,1.806-2.497,1.03-3.842c-0.777-1.345-2.497-1.806-3.842-1.03
									c-1.345,0.777-1.806,2.497-1.03,3.842C605.128,293.332,606.848,293.793,608.193,293.016z"/>
								<path style="fill:#A63009;" d="M509.916,349.757c1.345-0.777,1.806-2.497,1.03-3.842c-0.777-1.345-2.497-1.806-3.842-1.03
									c-1.345,0.777-1.806,2.497-1.03,3.842C506.85,350.072,508.571,350.533,509.916,349.757z"/>
							</g>
						</g>
						<g>
							<g>
								<path style="fill:#A63009;" d="M509.916,288.144c-1.345-0.777-3.065-0.316-3.842,1.03s-0.316,3.065,1.03,3.842
									c1.345,0.777,3.065,0.316,3.842-1.03C511.722,290.641,511.261,288.921,509.916,288.144z"/>
								<path style="fill:#A63009;" d="M608.193,344.885c-1.345-0.777-3.065-0.316-3.842,1.03c-0.777,1.345-0.316,3.065,1.03,3.842
									c1.345,0.777,3.065,0.316,3.842-1.03C610,347.382,609.539,345.662,608.193,344.885z"/>
							</g>
							<g>
								<path style="fill:#A63009;" d="M588.455,271.218c0.777-1.345,0.316-3.065-1.03-3.842c-1.345-0.777-3.065-0.316-3.842,1.03
									c-0.777,1.345-0.316,3.065,1.03,3.842C585.958,273.024,587.678,272.563,588.455,271.218z"/>
								<path style="fill:#A63009;" d="M531.714,369.496c0.777-1.345,0.316-3.065-1.029-3.842c-1.345-0.777-3.065-0.316-3.842,1.029
									c-0.777,1.345-0.316,3.065,1.03,3.842C529.217,371.302,530.937,370.841,531.714,369.496z"/>
							</g>
						</g>
						<g>
							<g>
								<path style="fill:#A63009;" d="M500.908,316.138c-1.553,0-2.813,1.259-2.813,2.813s1.259,2.813,2.813,2.813
									c1.553,0,2.813-1.259,2.813-2.813S502.461,316.138,500.908,316.138z"/>
								<path style="fill:#A63009;" d="M614.389,316.138c-1.553,0-2.813,1.259-2.813,2.813s1.259,2.813,2.813,2.813
									s2.813-1.259,2.813-2.813S615.942,316.138,614.389,316.138z"/>
							</g>
							<g>
								<path style="fill:#A63009;" d="M560.461,262.21c0-1.553-1.259-2.813-2.813-2.813c-1.553,0-2.813,1.259-2.813,2.813
									c0,1.553,1.259,2.813,2.813,2.813C559.202,265.022,560.461,263.763,560.461,262.21z"/>
								<path style="fill:#A63009;" d="M560.461,375.691c0-1.553-1.259-2.813-2.813-2.813c-1.553,0-2.813,1.259-2.813,2.813
									c0,1.553,1.259,2.813,2.813,2.813C559.202,378.504,560.461,377.244,560.461,375.691z"/>
							</g>
						</g>
					</g>
				</g>
				<g>
					<g>
						<circle style="fill:#CC3609;" cx="475.482" cy="406.144" r="15.911"/>
					</g>
					
						<text transform="matrix(1 0 0 1 467.1162 412.2753)" style="fill:#FFFFFF; font-family:'Montserrat-Bold'; font-size:18.7916px;">-1</text>
				</g>
			</g>
		</g>
	</g>
	<g>
		<g>
			<path style="fill:#FFA143;" d="M103.342,94.318L103.342,94.318L103.342,94.318c-6.467-2.443-12.433,4.566-8.988,10.56v0v0
				c-5.241-4.508-13.245,0.038-12.057,6.849l0,0l0,0c-3.384-6.029-12.459-4.494-13.673,2.312l0,0l0,0
				c-1.118-6.822-10.171-8.485-13.639-2.504l0,0l0,0c1.283-6.793-6.655-11.451-11.96-7.018h0h0
				c3.529-5.945-2.337-13.037-8.838-10.685l0,0l0,0c5.35-4.379,2.263-13.05-4.651-13.064l0,0l0,0
				c6.525-2.285,6.59-11.49,0.098-13.867l0,0l0,0c6.913,0.084,10.122-8.543,4.834-12.997l0,0l0,0
				c6.467,2.443,12.433-4.566,8.988-10.56l0,0l0,0c5.241,4.508,13.245-0.038,12.057-6.849l0,0l0,0
				c3.384,6.029,12.459,4.494,13.673-2.312l0,0l0,0c1.118,6.822,10.171,8.485,13.639,2.504h0l0,0
				c-1.283,6.793,6.655,11.451,11.96,7.018l0,0l0,0c-3.529,5.945,2.337,13.037,8.838,10.685h0h0
				c-5.35,4.379-2.262,13.05,4.651,13.064l0,0l0,0c-6.525,2.285-6.59,11.49-0.098,13.866v0v0
				C101.264,81.237,98.055,89.864,103.342,94.318z"/>
			
				<ellipse transform="matrix(0.0576 -0.9983 0.9983 0.0576 -9.0552 138.6293)" style="fill:#FFC543;" cx="68.905" cy="74.111" rx="26.189" ry="26.189"/>
		</g>
		<g>
			<path style="fill:#BBE9F8;" d="M684.418,81.126H581.283c0,0,12.785-14.191,32.812-10.377c1.775-26.369,35.42-27.427,30.331-0.651
				c14.963-11.113,17.49,6.439,17.49,6.439S679.559,69.923,684.418,81.126z"/>
			<g>
				<g>
					<path style="fill:#BBE9F8;" d="M686.372,142.987c-0.393,0-0.711-0.318-0.711-0.711v-31.01c0-0.393,0.318-0.711,0.711-0.711
						s0.711,0.318,0.711,0.711v31.01C687.083,142.669,686.765,142.987,686.372,142.987z"/>
					<path style="fill:#BBE9F8;" d="M686.366,115.755l-3.746-4.823c-0.241-0.31-0.185-0.757,0.125-0.997
						c0.31-0.241,0.756-0.185,0.997,0.125l2.637,3.395l2.706-3.401c0.244-0.307,0.691-0.358,0.998-0.114
						c0.307,0.244,0.358,0.692,0.114,0.999L686.366,115.755z"/>
					<path style="fill:#BBE9F8;" d="M686.366,119.864l-3.746-4.823c-0.241-0.31-0.185-0.756,0.125-0.997
						c0.31-0.241,0.756-0.185,0.997,0.125l2.637,3.395l2.706-3.401c0.244-0.307,0.691-0.358,0.998-0.114
						c0.307,0.244,0.358,0.691,0.114,0.998L686.366,119.864z"/>
					<path style="fill:#BBE9F8;" d="M683.18,143.745c-0.152,0-0.306-0.049-0.435-0.149c-0.31-0.241-0.366-0.687-0.125-0.997
						l3.746-4.823l3.832,4.816c0.245,0.307,0.193,0.754-0.114,0.999c-0.307,0.245-0.755,0.194-0.998-0.114l-2.706-3.402
						l-2.637,3.395C683.602,143.65,683.392,143.745,683.18,143.745z"/>
					<path style="fill:#BBE9F8;" d="M683.18,139.636c-0.152,0-0.306-0.049-0.435-0.149c-0.31-0.241-0.366-0.687-0.125-0.997
						l3.746-4.823l3.832,4.816c0.245,0.307,0.193,0.754-0.114,0.999c-0.307,0.245-0.755,0.193-0.998-0.114l-2.706-3.401
						l-2.637,3.395C683.602,139.542,683.392,139.636,683.18,139.636z"/>
				</g>
				<g>
					<path style="fill:#BBE9F8;" d="M701.91,127.438H670.9c-0.393,0-0.711-0.318-0.711-0.711s0.318-0.711,0.711-0.711h31.01
						c0.393,0,0.711,0.318,0.711,0.711S702.302,127.438,701.91,127.438z"/>
					<path style="fill:#BBE9F8;" d="M702.679,130.706c-0.155,0-0.311-0.051-0.442-0.155l-4.816-3.831l4.823-3.746
						c0.31-0.241,0.757-0.185,0.997,0.125c0.241,0.31,0.185,0.757-0.125,0.997l-3.395,2.637l3.401,2.706
						c0.307,0.244,0.358,0.691,0.114,0.998C703.096,130.614,702.889,130.706,702.679,130.706z"/>
					<path style="fill:#BBE9F8;" d="M698.57,130.706c-0.155,0-0.311-0.051-0.442-0.155l-4.817-3.831l4.823-3.746
						c0.31-0.241,0.756-0.185,0.997,0.125c0.241,0.31,0.185,0.757-0.125,0.997l-3.395,2.637l3.401,2.706
						c0.307,0.244,0.358,0.691,0.114,0.998C698.987,130.614,698.78,130.706,698.57,130.706z"/>
					<path style="fill:#BBE9F8;" d="M670.143,130.706c-0.209,0-0.417-0.092-0.557-0.268c-0.245-0.307-0.193-0.754,0.114-0.998
						l3.401-2.706l-3.395-2.637c-0.31-0.241-0.366-0.687-0.125-0.997c0.241-0.31,0.687-0.366,0.997-0.125l4.823,3.746l-4.817,3.831
						C670.454,130.656,670.298,130.706,670.143,130.706z"/>
					<path style="fill:#BBE9F8;" d="M674.252,130.706c-0.209,0-0.416-0.092-0.557-0.268c-0.245-0.307-0.194-0.754,0.114-0.998
						l3.401-2.706l-3.395-2.637c-0.31-0.241-0.366-0.687-0.125-0.997c0.241-0.31,0.687-0.366,0.997-0.125l4.823,3.746l-4.816,3.831
						C674.563,130.656,674.407,130.706,674.252,130.706z"/>
				</g>
				<g>
					<path style="fill:#BBE9F8;" d="M675.416,138.417c-0.182,0-0.364-0.069-0.503-0.208c-0.278-0.277-0.278-0.727,0-1.005
						l21.927-21.927c0.277-0.278,0.728-0.278,1.005,0c0.278,0.277,0.278,0.728,0,1.005l-21.927,21.927
						C675.78,138.347,675.598,138.417,675.416,138.417z"/>
					<path style="fill:#BBE9F8;" d="M694.164,118.948l0.761-6.059c0.049-0.389,0.402-0.666,0.794-0.617
						c0.389,0.049,0.665,0.404,0.617,0.794l-0.536,4.265l4.318-0.492c0.39-0.044,0.742,0.236,0.787,0.626
						c0.044,0.39-0.236,0.742-0.626,0.786L694.164,118.948z"/>
					<path style="fill:#BBE9F8;" d="M691.259,121.854l0.761-6.059c0.049-0.389,0.402-0.666,0.794-0.617
						c0.389,0.049,0.665,0.404,0.617,0.794l-0.536,4.265l4.318-0.492c0.388-0.043,0.742,0.236,0.786,0.626
						c0.045,0.39-0.236,0.742-0.626,0.787L691.259,121.854z"/>
					<path style="fill:#BBE9F8;" d="M677.192,141.264c-0.027,0-0.054-0.001-0.081-0.005c-0.39-0.044-0.67-0.397-0.626-0.787
						l0.492-4.318l-4.265,0.536c-0.392,0.049-0.745-0.227-0.794-0.617c-0.049-0.39,0.227-0.745,0.617-0.794l6.059-0.761
						l-0.696,6.115C677.856,140.996,677.549,141.264,677.192,141.264z"/>
					<path style="fill:#BBE9F8;" d="M680.098,138.358c-0.027,0-0.054-0.001-0.081-0.005c-0.39-0.044-0.67-0.397-0.626-0.786
						l0.492-4.318l-4.265,0.536c-0.392,0.049-0.745-0.227-0.794-0.617c-0.049-0.389,0.227-0.745,0.617-0.794l6.059-0.761
						l-0.696,6.115C680.762,138.091,680.454,138.358,680.098,138.358z"/>
				</g>
				<g>
					<path style="fill:#BBE9F8;" d="M697.398,138.408c-0.182,0-0.364-0.07-0.503-0.208l-21.927-21.927
						c-0.278-0.277-0.278-0.728,0-1.005c0.277-0.278,0.727-0.278,1.005,0l21.927,21.927c0.278,0.278,0.278,0.728,0,1.005
						C697.762,138.339,697.58,138.408,697.398,138.408z"/>
					<path style="fill:#BBE9F8;" d="M695.63,141.264c-0.357,0-0.664-0.268-0.705-0.63l-0.696-6.115l6.059,0.761
						c0.389,0.049,0.666,0.404,0.617,0.794c-0.049,0.39-0.403,0.668-0.794,0.617l-4.265-0.536l0.492,4.318
						c0.044,0.39-0.236,0.742-0.626,0.787C695.684,141.262,695.657,141.264,695.63,141.264z"/>
					<path style="fill:#BBE9F8;" d="M692.724,138.358c-0.357,0-0.664-0.268-0.705-0.63l-0.696-6.115l6.059,0.761
						c0.389,0.049,0.665,0.404,0.617,0.794c-0.049,0.389-0.403,0.667-0.794,0.617l-4.265-0.536l0.492,4.318
						c0.044,0.39-0.236,0.742-0.626,0.786C692.778,138.357,692.751,138.358,692.724,138.358z"/>
					<path style="fill:#BBE9F8;" d="M678.658,118.948l-6.115-0.696c-0.39-0.044-0.67-0.397-0.626-0.786
						c0.045-0.39,0.4-0.671,0.786-0.626l4.318,0.492l-0.536-4.265c-0.049-0.39,0.227-0.745,0.616-0.794
						c0.391-0.051,0.745,0.227,0.794,0.617L678.658,118.948z"/>
					<path style="fill:#BBE9F8;" d="M681.563,121.854l-6.115-0.696c-0.39-0.045-0.67-0.397-0.626-0.787
						c0.044-0.39,0.399-0.669,0.786-0.626l4.319,0.492l-0.536-4.265c-0.049-0.39,0.227-0.745,0.617-0.794
						c0.391-0.051,0.745,0.227,0.794,0.617L681.563,121.854z"/>
				</g>
			</g>
			<g>
				<g>
					<path style="fill:#BBE9F8;" d="M408.254,184.462c-0.392,0-0.711-0.318-0.711-0.711v-31.01c0-0.392,0.318-0.711,0.711-0.711
						c0.393,0,0.711,0.318,0.711,0.711v31.01C408.965,184.143,408.647,184.462,408.254,184.462z"/>
					<path style="fill:#BBE9F8;" d="M408.247,157.23l-3.746-4.823c-0.241-0.31-0.185-0.757,0.125-0.997
						c0.31-0.24,0.756-0.185,0.997,0.125l2.637,3.395l2.706-3.401c0.244-0.307,0.691-0.358,0.999-0.114
						c0.307,0.244,0.358,0.691,0.114,0.999L408.247,157.23z"/>
					<path style="fill:#BBE9F8;" d="M408.247,161.339l-3.746-4.823c-0.241-0.31-0.185-0.757,0.125-0.997
						c0.31-0.241,0.756-0.185,0.997,0.125l2.637,3.395l2.706-3.401c0.244-0.307,0.691-0.358,0.999-0.114
						c0.307,0.244,0.358,0.691,0.114,0.999L408.247,161.339z"/>
					<path style="fill:#BBE9F8;" d="M405.062,185.219c-0.152,0-0.306-0.049-0.435-0.149c-0.31-0.241-0.366-0.687-0.125-0.997
						l3.746-4.823l3.832,4.816c0.244,0.307,0.193,0.754-0.114,0.999c-0.307,0.245-0.755,0.194-0.999-0.114l-2.706-3.401
						l-2.637,3.395C405.483,185.125,405.274,185.219,405.062,185.219z"/>
					<path style="fill:#BBE9F8;" d="M405.062,181.111c-0.152,0-0.306-0.049-0.435-0.149c-0.31-0.241-0.366-0.687-0.125-0.997
						l3.746-4.823l3.832,4.816c0.244,0.307,0.193,0.754-0.114,0.999c-0.307,0.245-0.755,0.193-0.999-0.114l-2.706-3.401
						l-2.637,3.395C405.483,181.016,405.274,181.111,405.062,181.111z"/>
				</g>
				<g>
					<path style="fill:#BBE9F8;" d="M423.792,168.912h-31.01c-0.392,0-0.711-0.318-0.711-0.711s0.318-0.711,0.711-0.711h31.01
						c0.392,0,0.711,0.318,0.711,0.711S424.184,168.912,423.792,168.912z"/>
					<path style="fill:#BBE9F8;" d="M424.561,172.181c-0.155,0-0.311-0.051-0.442-0.155l-4.816-3.831l4.823-3.746
						c0.31-0.24,0.757-0.185,0.997,0.125c0.241,0.31,0.185,0.757-0.125,0.997l-3.395,2.637l3.401,2.706
						c0.307,0.244,0.358,0.691,0.114,0.999C424.977,172.089,424.77,172.181,424.561,172.181z"/>
					<path style="fill:#BBE9F8;" d="M420.452,172.181c-0.155,0-0.311-0.051-0.442-0.155l-4.816-3.831l4.823-3.746
						c0.31-0.24,0.757-0.185,0.997,0.125c0.241,0.31,0.185,0.757-0.125,0.997l-3.395,2.637l3.401,2.706
						c0.307,0.244,0.358,0.691,0.114,0.999C420.868,172.089,420.661,172.181,420.452,172.181z"/>
					<path style="fill:#BBE9F8;" d="M392.024,172.181c-0.209,0-0.417-0.092-0.557-0.268c-0.245-0.307-0.194-0.754,0.114-0.999
						l3.401-2.706l-3.395-2.637c-0.31-0.241-0.366-0.687-0.125-0.997c0.241-0.31,0.687-0.366,0.997-0.125l4.823,3.746l-4.816,3.831
						C392.336,172.13,392.179,172.181,392.024,172.181z"/>
					<path style="fill:#BBE9F8;" d="M396.133,172.181c-0.209,0-0.416-0.092-0.557-0.268c-0.245-0.307-0.194-0.754,0.114-0.999
						l3.401-2.706l-3.395-2.637c-0.31-0.241-0.366-0.687-0.125-0.997c0.241-0.31,0.687-0.366,0.997-0.125l4.823,3.746l-4.816,3.831
						C396.444,172.13,396.288,172.181,396.133,172.181z"/>
				</g>
				<g>
					<path style="fill:#BBE9F8;" d="M397.297,179.891c-0.182,0-0.364-0.069-0.502-0.208c-0.278-0.277-0.278-0.728,0-1.005
						l21.927-21.927c0.277-0.278,0.728-0.278,1.005,0c0.278,0.277,0.278,0.728,0,1.005L397.8,179.683
						C397.661,179.822,397.479,179.891,397.297,179.891z"/>
					<path style="fill:#BBE9F8;" d="M416.046,160.423l0.761-6.059c0.049-0.389,0.402-0.666,0.794-0.617
						c0.389,0.049,0.665,0.404,0.616,0.794l-0.536,4.265l4.318-0.492c0.39-0.044,0.742,0.236,0.787,0.626
						c0.044,0.39-0.236,0.742-0.626,0.787L416.046,160.423z"/>
					<path style="fill:#BBE9F8;" d="M413.14,163.328l0.761-6.059c0.049-0.389,0.402-0.666,0.794-0.617
						c0.389,0.049,0.665,0.404,0.616,0.794l-0.536,4.265l4.319-0.492c0.388-0.043,0.742,0.236,0.786,0.626
						c0.044,0.39-0.236,0.742-0.626,0.786L413.14,163.328z"/>
					<path style="fill:#BBE9F8;" d="M399.074,182.738c-0.027,0-0.054-0.001-0.081-0.005c-0.39-0.044-0.67-0.397-0.626-0.786
						l0.492-4.318l-4.265,0.536c-0.392,0.049-0.745-0.227-0.794-0.617c-0.049-0.389,0.227-0.745,0.617-0.794l6.059-0.761
						l-0.696,6.115C399.738,182.471,399.43,182.738,399.074,182.738z"/>
					<path style="fill:#BBE9F8;" d="M401.979,179.833c-0.027,0-0.054-0.001-0.081-0.005c-0.39-0.044-0.67-0.397-0.626-0.787
						l0.492-4.319l-4.265,0.536c-0.392,0.049-0.745-0.227-0.794-0.617c-0.049-0.39,0.227-0.745,0.616-0.794l6.059-0.761
						l-0.696,6.115C402.643,179.566,402.336,179.833,401.979,179.833z"/>
				</g>
				<g>
					<path style="fill:#BBE9F8;" d="M419.279,179.883c-0.182,0-0.364-0.069-0.503-0.208l-21.927-21.927
						c-0.278-0.277-0.278-0.728,0-1.005c0.277-0.278,0.727-0.278,1.005,0l21.927,21.927c0.278,0.277,0.278,0.728,0,1.005
						C419.643,179.813,419.461,179.883,419.279,179.883z"/>
					<path style="fill:#BBE9F8;" d="M417.511,182.738c-0.357,0-0.664-0.268-0.705-0.63l-0.696-6.115l6.059,0.761
						c0.389,0.049,0.665,0.404,0.617,0.794c-0.049,0.39-0.403,0.667-0.794,0.617l-4.265-0.536l0.492,4.318
						c0.044,0.39-0.236,0.742-0.626,0.786C417.565,182.737,417.538,182.738,417.511,182.738z"/>
					<path style="fill:#BBE9F8;" d="M414.606,179.833c-0.357,0-0.664-0.268-0.705-0.63l-0.696-6.115l6.059,0.761
						c0.389,0.049,0.665,0.404,0.616,0.794c-0.049,0.389-0.403,0.667-0.794,0.617l-4.265-0.536l0.492,4.319
						c0.044,0.39-0.236,0.742-0.626,0.787C414.66,179.832,414.633,179.833,414.606,179.833z"/>
					<path style="fill:#BBE9F8;" d="M400.539,160.423l-6.115-0.696c-0.39-0.044-0.67-0.397-0.626-0.787
						c0.044-0.39,0.4-0.671,0.786-0.626l4.318,0.492l-0.536-4.265c-0.049-0.39,0.227-0.745,0.617-0.794
						c0.391-0.051,0.745,0.227,0.794,0.617L400.539,160.423z"/>
					<path style="fill:#BBE9F8;" d="M403.445,163.328l-6.115-0.696c-0.39-0.044-0.67-0.397-0.626-0.786
						c0.044-0.39,0.398-0.669,0.786-0.626l4.319,0.492l-0.536-4.265c-0.049-0.389,0.227-0.745,0.617-0.794
						c0.391-0.051,0.745,0.227,0.794,0.617L403.445,163.328z"/>
				</g>
			</g>
			<g>
				<g>
					<path style="fill:#BBE9F8;" d="M711.13,180.231c-0.256-0.107-0.376-0.402-0.269-0.658l8.476-20.21
						c0.107-0.256,0.402-0.376,0.658-0.269c0.256,0.107,0.376,0.402,0.269,0.657l-8.476,20.21
						C711.68,180.218,711.385,180.338,711.13,180.231z"/>
					<path style="fill:#BBE9F8;" d="M718.569,162.482l-1.124-4.167c-0.072-0.268,0.086-0.544,0.354-0.616
						c0.268-0.072,0.543,0.086,0.616,0.354l0.791,2.934l2.693-1.477c0.243-0.133,0.548-0.045,0.682,0.199
						c0.133,0.243,0.044,0.549-0.199,0.682L718.569,162.482z"/>
					<path style="fill:#BBE9F8;" d="M717.446,165.159l-1.124-4.167c-0.072-0.268,0.087-0.544,0.354-0.616
						c0.268-0.072,0.543,0.086,0.616,0.354l0.791,2.933l2.693-1.477c0.243-0.133,0.548-0.044,0.682,0.199
						c0.133,0.243,0.044,0.549-0.199,0.682L717.446,165.159z"/>
					<path style="fill:#BBE9F8;" d="M708.842,179.852c-0.099-0.042-0.186-0.115-0.243-0.216c-0.136-0.242-0.051-0.548,0.191-0.684
						l3.76-2.119l1.181,4.186c0.075,0.267-0.08,0.544-0.347,0.62c-0.267,0.075-0.545-0.08-0.62-0.347l-0.834-2.956l-2.647,1.492
						C709.143,179.906,708.98,179.91,708.842,179.852z"/>
					<path style="fill:#BBE9F8;" d="M709.965,177.174c-0.099-0.042-0.186-0.115-0.243-0.216c-0.136-0.242-0.051-0.548,0.191-0.684
						l3.76-2.119l1.181,4.186c0.075,0.267-0.08,0.544-0.347,0.62c-0.267,0.076-0.545-0.08-0.62-0.347l-0.834-2.956l-2.647,1.492
						C710.266,177.228,710.103,177.232,709.965,177.174z"/>
				</g>
				<g>
					<path style="fill:#BBE9F8;" d="M725.506,174.344l-20.21-8.476c-0.256-0.107-0.376-0.402-0.269-0.657
						c0.107-0.256,0.402-0.376,0.657-0.269l20.21,8.476c0.256,0.107,0.376,0.402,0.269,0.658S725.762,174.451,725.506,174.344z"/>
					<path style="fill:#BBE9F8;" d="M725.114,176.685c-0.101-0.042-0.189-0.118-0.246-0.222l-2.092-3.814l4.167-1.123
						c0.268-0.072,0.544,0.086,0.616,0.354s-0.086,0.544-0.354,0.616l-2.933,0.791l1.477,2.693c0.133,0.243,0.044,0.549-0.199,0.682
						C725.411,176.739,725.25,176.742,725.114,176.685z"/>
					<path style="fill:#BBE9F8;" d="M722.436,175.561c-0.101-0.042-0.189-0.118-0.246-0.222l-2.092-3.814l4.167-1.123
						c0.268-0.072,0.544,0.086,0.616,0.354c0.072,0.268-0.086,0.544-0.354,0.616l-2.933,0.791l1.477,2.693
						c0.133,0.243,0.044,0.548-0.199,0.682C722.733,175.615,722.573,175.619,722.436,175.561z"/>
					<path style="fill:#BBE9F8;" d="M703.909,167.791c-0.136-0.057-0.246-0.174-0.289-0.327c-0.075-0.267,0.08-0.544,0.347-0.62
						l2.956-0.834l-1.492-2.646c-0.136-0.242-0.051-0.548,0.191-0.684c0.242-0.136,0.548-0.051,0.684,0.191l2.119,3.76l-4.186,1.181
						C704.125,167.843,704.01,167.833,703.909,167.791z"/>
					<path style="fill:#BBE9F8;" d="M706.587,168.914c-0.136-0.057-0.246-0.174-0.289-0.327c-0.075-0.267,0.08-0.544,0.347-0.62
						l2.956-0.834l-1.492-2.646c-0.136-0.242-0.051-0.548,0.191-0.684c0.242-0.136,0.548-0.05,0.684,0.191l2.119,3.76l-4.186,1.181
						C706.803,168.966,706.688,168.957,706.587,168.914z"/>
				</g>
				<g>
					<path style="fill:#BBE9F8;" d="M705.238,174.258c-0.118-0.05-0.218-0.145-0.271-0.273c-0.105-0.257,0.018-0.55,0.275-0.655
						l20.284-8.297c0.257-0.105,0.55,0.018,0.655,0.275c0.105,0.257-0.018,0.55-0.275,0.655l-20.284,8.297
						C705.494,174.312,705.357,174.307,705.238,174.258z"/>
					<path style="fill:#BBE9F8;" d="M722.778,166.694l2.153-3.741c0.138-0.24,0.444-0.324,0.686-0.185
						c0.24,0.138,0.323,0.445,0.185,0.686l-1.515,2.633l2.949,0.86c0.266,0.078,0.419,0.357,0.342,0.623
						c-0.078,0.266-0.357,0.419-0.623,0.342L722.778,166.694z"/>
					<path style="fill:#BBE9F8;" d="M720.091,167.793l2.153-3.741c0.138-0.24,0.444-0.324,0.686-0.185
						c0.24,0.138,0.323,0.445,0.185,0.686l-1.515,2.633l2.949,0.86c0.265,0.078,0.419,0.357,0.341,0.623
						c-0.078,0.266-0.357,0.419-0.623,0.342L720.091,167.793z"/>
					<path style="fill:#BBE9F8;" d="M705.617,176.599c-0.018-0.007-0.035-0.016-0.052-0.025c-0.242-0.136-0.328-0.442-0.193-0.684
						l1.501-2.68l-2.926-0.817c-0.269-0.075-0.424-0.352-0.349-0.619c0.075-0.267,0.352-0.423,0.619-0.349l4.157,1.16l-2.125,3.795
						C706.123,176.606,705.85,176.696,705.617,176.599z"/>
					<path style="fill:#BBE9F8;" d="M708.305,175.499c-0.018-0.007-0.035-0.016-0.052-0.025c-0.242-0.136-0.328-0.442-0.193-0.684
						l1.501-2.68l-2.926-0.817c-0.269-0.075-0.423-0.352-0.349-0.619c0.075-0.267,0.352-0.423,0.619-0.349l4.157,1.16l-2.125,3.795
						C708.811,175.507,708.538,175.597,708.305,175.499z"/>
				</g>
				<g>
					<path style="fill:#BBE9F8;" d="M719.567,180.26c-0.119-0.05-0.218-0.145-0.271-0.273l-8.297-20.284
						c-0.105-0.257,0.018-0.55,0.275-0.655c0.257-0.105,0.55,0.018,0.655,0.275l8.297,20.284c0.105,0.257-0.018,0.55-0.275,0.655
						C719.823,180.315,719.685,180.31,719.567,180.26z"/>
					<path style="fill:#BBE9F8;" d="M717.634,181.638c-0.232-0.097-0.36-0.356-0.287-0.604l1.218-4.176l3.741,2.152
						c0.24,0.138,0.323,0.445,0.185,0.686c-0.138,0.24-0.445,0.325-0.686,0.185l-2.633-1.515l-0.86,2.949
						c-0.078,0.266-0.356,0.419-0.623,0.342C717.669,181.652,717.651,181.646,717.634,181.638z"/>
					<path style="fill:#BBE9F8;" d="M716.534,178.951c-0.232-0.097-0.36-0.356-0.287-0.604l1.218-4.176l3.741,2.152
						c0.24,0.138,0.323,0.445,0.185,0.686c-0.138,0.24-0.445,0.325-0.686,0.185l-2.633-1.515l-0.86,2.949
						c-0.078,0.266-0.357,0.419-0.623,0.342C716.57,178.965,716.552,178.958,716.534,178.951z"/>
					<path style="fill:#BBE9F8;" d="M712.672,162.455l-3.795-2.125c-0.242-0.136-0.328-0.442-0.193-0.684
						c0.136-0.242,0.444-0.328,0.684-0.193l2.68,1.501l0.817-2.926c0.075-0.267,0.352-0.423,0.619-0.349
						c0.269,0.073,0.423,0.352,0.349,0.619L712.672,162.455z"/>
					<path style="fill:#BBE9F8;" d="M713.772,165.143l-3.795-2.125c-0.242-0.136-0.328-0.442-0.193-0.684
						c0.136-0.242,0.443-0.327,0.684-0.193l2.68,1.501l0.817-2.926c0.075-0.267,0.352-0.423,0.619-0.349
						c0.269,0.074,0.423,0.352,0.349,0.619L713.772,165.143z"/>
				</g>
			</g>
			<g>
				<g>
					<path style="fill:#BBE9F8;" d="M544.606,62.987c-0.256-0.107-0.376-0.402-0.269-0.657l8.476-20.21
						c0.107-0.256,0.402-0.376,0.657-0.269s0.376,0.402,0.269,0.657l-8.476,20.21C545.156,62.974,544.862,63.094,544.606,62.987z"/>
					<path style="fill:#BBE9F8;" d="M552.045,45.237l-1.124-4.167c-0.072-0.268,0.086-0.544,0.354-0.616
						c0.268-0.072,0.543,0.086,0.616,0.354l0.791,2.933l2.693-1.477c0.243-0.133,0.548-0.045,0.682,0.199
						c0.133,0.243,0.044,0.549-0.199,0.682L552.045,45.237z"/>
					<path style="fill:#BBE9F8;" d="M550.922,47.915l-1.124-4.167c-0.072-0.268,0.087-0.544,0.354-0.616
						c0.268-0.072,0.543,0.086,0.616,0.354l0.791,2.934l2.693-1.477c0.243-0.133,0.548-0.045,0.682,0.199
						c0.133,0.243,0.044,0.549-0.199,0.682L550.922,47.915z"/>
					<path style="fill:#BBE9F8;" d="M542.318,62.608c-0.099-0.042-0.186-0.115-0.243-0.216c-0.136-0.242-0.051-0.548,0.191-0.684
						l3.76-2.119l1.181,4.186c0.075,0.267-0.08,0.544-0.347,0.62c-0.267,0.075-0.545-0.08-0.62-0.347l-0.834-2.957l-2.647,1.492
						C542.619,62.662,542.456,62.666,542.318,62.608z"/>
					<path style="fill:#BBE9F8;" d="M543.441,59.931c-0.099-0.042-0.186-0.115-0.243-0.216c-0.136-0.242-0.051-0.548,0.191-0.684
						l3.76-2.119l1.181,4.186c0.075,0.267-0.08,0.544-0.347,0.62c-0.267,0.076-0.545-0.08-0.62-0.347l-0.834-2.957l-2.647,1.492
						C543.742,59.984,543.58,59.988,543.441,59.931z"/>
				</g>
				<g>
					<path style="fill:#BBE9F8;" d="M558.982,57.1l-20.21-8.476c-0.256-0.107-0.376-0.402-0.269-0.658
						c0.107-0.256,0.402-0.376,0.657-0.269l20.21,8.476c0.256,0.107,0.376,0.402,0.269,0.657
						C559.532,57.087,559.238,57.207,558.982,57.1z"/>
					<path style="fill:#BBE9F8;" d="M558.59,59.441c-0.101-0.042-0.189-0.118-0.246-0.222l-2.092-3.814l4.167-1.123
						c0.268-0.072,0.544,0.086,0.616,0.354c0.072,0.268-0.087,0.544-0.354,0.616l-2.933,0.791l1.477,2.693
						c0.133,0.243,0.044,0.549-0.199,0.682C558.887,59.495,558.727,59.498,558.59,59.441z"/>
					<path style="fill:#BBE9F8;" d="M555.912,58.318c-0.101-0.042-0.189-0.118-0.246-0.222l-2.092-3.814l4.167-1.123
						c0.268-0.072,0.544,0.086,0.616,0.354c0.072,0.268-0.086,0.544-0.354,0.616l-2.933,0.791l1.477,2.693
						c0.133,0.243,0.044,0.549-0.199,0.682C556.209,58.371,556.049,58.375,555.912,58.318z"/>
					<path style="fill:#BBE9F8;" d="M537.385,50.547c-0.136-0.057-0.246-0.174-0.289-0.327c-0.075-0.267,0.08-0.544,0.347-0.62
						l2.956-0.834l-1.492-2.646c-0.136-0.242-0.051-0.548,0.191-0.684c0.242-0.136,0.548-0.051,0.684,0.191l2.119,3.76l-4.186,1.181
						C537.602,50.599,537.486,50.59,537.385,50.547z"/>
					<path style="fill:#BBE9F8;" d="M540.063,51.67c-0.136-0.057-0.246-0.174-0.289-0.327c-0.075-0.267,0.08-0.544,0.347-0.62
						l2.956-0.834l-1.492-2.646c-0.136-0.242-0.051-0.548,0.191-0.684c0.242-0.136,0.548-0.051,0.684,0.191l2.119,3.76l-4.186,1.181
						C540.28,51.722,540.164,51.713,540.063,51.67z"/>
				</g>
				<g>
					<path style="fill:#BBE9F8;" d="M538.714,57.014c-0.118-0.05-0.218-0.145-0.271-0.273c-0.105-0.257,0.018-0.55,0.275-0.655
						l20.284-8.297c0.257-0.105,0.55,0.018,0.655,0.275c0.105,0.257-0.018,0.55-0.275,0.655l-20.284,8.297
						C538.97,57.068,538.833,57.063,538.714,57.014z"/>
					<path style="fill:#BBE9F8;" d="M556.255,49.45l2.153-3.741c0.138-0.24,0.444-0.324,0.686-0.185
						c0.24,0.138,0.323,0.445,0.185,0.686l-1.515,2.633l2.949,0.86c0.266,0.078,0.419,0.357,0.342,0.623
						c-0.078,0.266-0.357,0.419-0.623,0.342L556.255,49.45z"/>
					<path style="fill:#BBE9F8;" d="M553.567,50.549l2.153-3.741c0.138-0.24,0.444-0.324,0.686-0.185
						c0.24,0.138,0.323,0.445,0.185,0.686l-1.515,2.633l2.949,0.86c0.265,0.078,0.419,0.357,0.341,0.623
						c-0.078,0.266-0.357,0.419-0.623,0.342L553.567,50.549z"/>
					<path style="fill:#BBE9F8;" d="M539.094,59.355c-0.018-0.007-0.035-0.016-0.052-0.025c-0.242-0.136-0.328-0.442-0.193-0.684
						l1.501-2.68l-2.926-0.817c-0.269-0.075-0.424-0.352-0.349-0.619c0.075-0.267,0.352-0.423,0.619-0.349l4.157,1.16l-2.125,3.795
						C539.6,59.362,539.326,59.452,539.094,59.355z"/>
					<path style="fill:#BBE9F8;" d="M541.781,58.255c-0.018-0.007-0.035-0.016-0.052-0.025c-0.242-0.136-0.328-0.442-0.193-0.684
						l1.501-2.68l-2.926-0.817c-0.269-0.075-0.423-0.352-0.349-0.619c0.075-0.267,0.352-0.423,0.619-0.349l4.157,1.16l-2.125,3.795
						C542.287,58.263,542.014,58.353,541.781,58.255z"/>
				</g>
				<g>
					<path style="fill:#BBE9F8;" d="M553.043,63.016c-0.119-0.05-0.218-0.145-0.271-0.273l-8.297-20.284
						c-0.105-0.257,0.018-0.55,0.275-0.655c0.257-0.105,0.55,0.018,0.655,0.275l8.297,20.284c0.105,0.257-0.018,0.55-0.275,0.655
						C553.299,63.071,553.161,63.066,553.043,63.016z"/>
					<path style="fill:#BBE9F8;" d="M551.11,64.395c-0.233-0.097-0.36-0.356-0.287-0.604l1.218-4.176l3.741,2.153
						c0.24,0.138,0.323,0.445,0.185,0.686c-0.138,0.241-0.445,0.325-0.686,0.185l-2.633-1.515l-0.86,2.949
						c-0.078,0.266-0.356,0.419-0.623,0.341C551.146,64.408,551.128,64.402,551.11,64.395z"/>
					<path style="fill:#BBE9F8;" d="M550.011,61.707c-0.232-0.097-0.36-0.356-0.287-0.604l1.218-4.176l3.741,2.153
						c0.24,0.138,0.323,0.445,0.185,0.686c-0.138,0.24-0.445,0.325-0.686,0.185l-2.633-1.515l-0.86,2.949
						c-0.078,0.266-0.357,0.419-0.623,0.342C550.046,61.721,550.028,61.714,550.011,61.707z"/>
					<path style="fill:#BBE9F8;" d="M546.149,45.211l-3.795-2.125c-0.242-0.136-0.328-0.442-0.193-0.684
						c0.136-0.242,0.444-0.328,0.684-0.193l2.68,1.501l0.817-2.926c0.075-0.267,0.352-0.423,0.619-0.349
						c0.269,0.073,0.423,0.352,0.349,0.619L546.149,45.211z"/>
					<path style="fill:#BBE9F8;" d="M547.248,47.899l-3.795-2.125c-0.242-0.136-0.328-0.442-0.193-0.684
						c0.136-0.242,0.443-0.327,0.684-0.193l2.68,1.501l0.817-2.926c0.075-0.267,0.352-0.423,0.619-0.349
						c0.269,0.074,0.423,0.352,0.349,0.619L547.248,47.899z"/>
				</g>
			</g>
			<path style="fill:#BBE9F8;" d="M295.887,80.584h-91.879c0,0,1.631-11.971,19.858-8.979c-1.725-29.929,37.323-32.285,40.245-8.161
				C280.002,53.648,300.797,65.62,295.887,80.584z"/>
			<path style="fill:#BBE9F8;" d="M449.977,122.532H340.401c0,0,4.652-22.839,27.42-16.656c3.839-23.278,23.628-17.292,27.367-7.981
				c22.69-8.242,23.027,14.651,23.027,14.651S439.172,107.235,449.977,122.532z"/>
		</g>
	</g>
</g>
</svg>
