<?xml version="1.0" encoding="utf-8"?>
<!-- Generator: Adobe Illustrator 27.5.0, SVG Export Plug-In . SVG Version: 6.00 Build 0)  -->
<svg version="1.1" xmlns="http://www.w3.org/2000/svg" xmlns:xlink="http://www.w3.org/1999/xlink" x="0px" y="0px"
	 viewBox="0 0 500 500" style="enable-background:new 0 0 500 500;" xml:space="preserve">
<g id="Background_Complete">
	<g>
		<rect y="382.398" style="fill:#EBEBEB;" width="500" height="0.25"/>
		<rect x="416.779" y="398.494" style="fill:#EBEBEB;" width="33.122" height="0.25"/>
		<rect x="322.527" y="401.208" style="fill:#EBEBEB;" width="8.693" height="0.25"/>
		<rect x="396.586" y="389.208" style="fill:#EBEBEB;" width="19.192" height="0.25"/>
		<rect x="52.459" y="390.888" style="fill:#EBEBEB;" width="43.193" height="0.25"/>
		<rect x="104.556" y="390.888" style="fill:#EBEBEB;" width="6.333" height="0.25"/>
		<rect x="131.471" y="395.111" style="fill:#EBEBEB;" width="93.676" height="0.25"/>
		<path style="fill:#EBEBEB;" d="M237.014,337.8H43.915c-3.147,0-5.708-2.561-5.708-5.708V60.66c0-3.147,2.561-5.708,5.708-5.708
			h193.099c3.146,0,5.707,2.561,5.707,5.708v271.432C242.721,335.239,240.16,337.8,237.014,337.8z M43.915,55.203
			c-3.01,0-5.458,2.448-5.458,5.458v271.432c0,3.01,2.448,5.458,5.458,5.458h193.099c3.009,0,5.457-2.448,5.457-5.458V60.66
			c0-3.009-2.448-5.458-5.457-5.458H43.915z"/>
		<path style="fill:#EBEBEB;" d="M453.31,337.8H260.212c-3.147,0-5.707-2.561-5.707-5.708V60.66c0-3.147,2.561-5.708,5.707-5.708
			H453.31c3.148,0,5.708,2.561,5.708,5.708v271.432C459.019,335.239,456.458,337.8,453.31,337.8z M260.212,55.203
			c-3.009,0-5.457,2.448-5.457,5.458v271.432c0,3.01,2.448,5.458,5.457,5.458H453.31c3.01,0,5.458-2.448,5.458-5.458V60.66
			c0-3.009-2.448-5.458-5.458-5.458H260.212z"/>
	</g>
	<g>
		<g>
			
				<rect x="74.546" y="79.777" transform="matrix(-1 -1.224647e-16 1.224647e-16 -1 304.714 330.6515)" style="fill:#E6E6E6;" width="155.623" height="171.096"/>
			
				<rect x="69.466" y="79.777" transform="matrix(-1 -1.224647e-16 1.224647e-16 -1 297.2616 330.6515)" style="fill:#F0F0F0;" width="158.329" height="171.096"/>
			<polygon style="fill:#E6E6E6;" points="74.546,250.874 230.168,250.874 230.168,258.333 69.575,258.333 			"/>
			<polygon style="fill:#F0F0F0;" points="61.005,250.874 219.333,250.874 214.363,258.333 56.034,258.333 			"/>
			
				<rect x="70.193" y="93.272" transform="matrix(-1.836970e-16 1 -1 -1.836970e-16 313.9567 16.695)" style="fill:#FAFAFA;" width="156.875" height="144.107"/>
			<polygon style="fill:#FFFFFF;" points="196.413,243.763 140.748,86.888 121.046,86.888 176.711,243.763 			"/>
			<path style="fill:#F0F0F0;" d="M217.392,238.778c0.301,0,0.544-0.244,0.544-0.544V91.515c0-0.3-0.243-0.544-0.544-0.544
				c-0.301,0-0.544,0.244-0.544,0.544v146.719C216.848,238.534,217.091,238.778,217.392,238.778z"/>
			<polygon style="fill:#FFFFFF;" points="154.482,243.763 98.817,86.888 91.136,86.888 146.801,243.763 			"/>
			
				<rect x="-1.409" y="164.874" transform="matrix(-1.836970e-16 1 -1 -1.836970e-16 242.3546 88.2971)" style="fill:#E6E6E6;" width="156.875" height="0.903"/>
			<polygon style="opacity:0.5;fill:#E0E0E0;" points="67.785,100.609 223.408,100.609 224.062,89.652 68.439,89.652 			"/>
			<polygon style="opacity:0.5;fill:#E0E0E0;" points="67.785,118.621 223.408,118.621 224.062,107.664 68.439,107.664 			"/>
			<polygon style="opacity:0.5;fill:#E0E0E0;" points="67.785,136.632 223.408,136.632 224.062,125.675 68.439,125.675 			"/>
			<polygon style="opacity:0.5;fill:#E0E0E0;" points="67.785,154.644 223.408,154.644 224.062,143.687 68.439,143.687 			"/>
			<polygon style="opacity:0.5;fill:#E0E0E0;" points="67.785,172.655 223.408,172.655 224.062,161.699 68.439,161.699 			"/>
			<polygon style="opacity:0.5;fill:#E0E0E0;" points="67.785,190.667 223.408,190.667 224.062,179.71 68.439,179.71 			"/>
		</g>
		<g>
			<rect x="301.374" y="103" style="fill:#F5F5F5;" width="123.308" height="55.245"/>
			<rect x="301.374" y="103" style="fill:#E0E0E0;" width="123.308" height="1.937"/>
			<rect x="301.374" y="156.308" style="fill:#E0E0E0;" width="123.308" height="1.937"/>
			<polygon style="fill:#EBEBEB;" points="361.094,382.398 359.362,158.245 366.695,158.245 364.963,382.398 			"/>
			<polygon style="fill:#EBEBEB;" points="308.641,382.398 374.472,158.245 381.805,158.245 312.51,382.398 			"/>
			<polygon style="fill:#EBEBEB;" points="417.416,382.398 351.586,158.245 344.252,158.245 413.547,382.398 			"/>
		</g>
		<g>
			<g>
				
					<rect x="81.227" y="292.443" transform="matrix(-1 -1.224647e-16 1.224647e-16 -1 169.5472 678.6677)" style="fill:#E6E6E6;" width="7.093" height="93.783"/>
				
					<rect x="78.989" y="292.443" transform="matrix(-1 -1.224647e-16 1.224647e-16 -1 162.9037 678.6677)" style="fill:#F0F0F0;" width="4.926" height="93.783"/>
				<rect x="77.376" y="288.085" style="fill:#F0F0F0;" width="156.833" height="13.073"/>
				
					<rect x="230.168" y="301.158" transform="matrix(-1 -1.224647e-16 1.224647e-16 -1 467.4301 683.0253)" style="fill:#E6E6E6;" width="7.093" height="80.71"/>
				
					<rect x="227.93" y="301.158" transform="matrix(-1 -1.224647e-16 1.224647e-16 -1 460.7863 683.0253)" style="fill:#F0F0F0;" width="4.926" height="80.71"/>
				
					<rect x="280.659" y="301.158" transform="matrix(-1 -1.224647e-16 1.224647e-16 -1 568.411 683.0253)" style="fill:#E6E6E6;" width="7.093" height="80.71"/>
				
					<rect x="278.421" y="301.158" transform="matrix(-1 -1.224647e-16 1.224647e-16 -1 561.7672 683.0253)" style="fill:#F0F0F0;" width="4.926" height="80.71"/>
				
					<rect x="126.115" y="301.158" transform="matrix(-1 -1.224647e-16 1.224647e-16 -1 259.3225 683.0253)" style="fill:#E6E6E6;" width="7.093" height="80.71"/>
				
					<rect x="123.876" y="301.158" transform="matrix(-1 -1.224647e-16 1.224647e-16 -1 252.6788 683.0253)" style="fill:#F0F0F0;" width="4.926" height="80.71"/>
				
					<rect x="234.209" y="288.085" transform="matrix(-1 -1.224647e-16 1.224647e-16 -1 523.5744 589.2426)" style="fill:#E6E6E6;" width="55.156" height="13.073"/>
			</g>
			<g>
				<rect x="133.208" y="278.324" style="fill:#EBEBEB;" width="67.975" height="9.76"/>
				
					<rect x="201.182" y="278.324" transform="matrix(-1 -1.224647e-16 1.224647e-16 -1 435.6433 566.4093)" style="fill:#E0E0E0;" width="33.278" height="9.76"/>
				<path style="fill:#F5F5F5;" d="M209.782,280.442h16.079c0.763,0,1.382,0.619,1.382,1.382v0c0,0.763-0.618,1.382-1.382,1.382
					h-16.079c-0.763,0-1.382-0.619-1.382-1.382v0C208.401,281.06,209.019,280.442,209.782,280.442z"/>
				<rect x="155.962" y="271.312" style="fill:#F5F5F5;" width="13.695" height="7.013"/>
				<rect x="162.314" y="268.384" style="fill:#E6E6E6;" width="0.992" height="2.928"/>
				<rect x="180.872" y="272.527" style="fill:#E6E6E6;" width="0.992" height="1.464"/>
				<rect x="173.032" y="273.991" style="fill:#F0F0F0;" width="16.672" height="4.333"/>
			</g>
		</g>
	</g>
</g>
<g id="Background_Simple" style="display:none;">
	<g style="display:inline;">
		<path style="fill:#407BFF;" d="M324.272,147.715c-42.374,52.077-247.233,29.967-213.342,123.373
			c25.526,70.352,230.639,94.753,263.522,41.206c14.686-23.914-10.11-42.371,2.964-66.895
			c19.371-36.335,86.254-34.672,75.329-88.222c-5.863-28.736-54.741-84.031-88.836-73.538
			C343.986,89.77,331.498,138.834,324.272,147.715z"/>
		<path style="opacity:0.9;fill:#FFFFFF;" d="M324.272,147.715c-42.374,52.077-247.233,29.967-213.342,123.373
			c25.526,70.352,230.639,94.753,263.522,41.206c14.686-23.914-10.11-42.371,2.964-66.895
			c19.371-36.335,86.254-34.672,75.329-88.222c-5.863-28.736-54.741-84.031-88.836-73.538
			C343.986,89.77,331.498,138.834,324.272,147.715z"/>
	</g>
</g>
<g id="Shadow_1_">
	<ellipse id="_x3C_Path_x3E__355_" style="fill:#F5F5F5;" cx="250" cy="416.238" rx="193.889" ry="11.323"/>
</g>
<g id="Weather_widget">
	<g>
		<g>
			<rect x="221.684" y="91.544" style="fill:#407BFF;" width="7" height="1"/>
			<rect x="181.19" y="91.544" style="fill:#407BFF;" width="34.027" height="1"/>
			<path style="fill:#407BFF;" d="M401.459,231.558H87.098c-6.258,0-11.893-5.12-12.522-11.378L63.13,106.421
				c-0.63-6.258,3.975-11.378,10.233-11.378h314.362c6.258,0,11.893,5.12,12.522,11.378l11.445,113.76
				C412.322,226.439,407.717,231.558,401.459,231.558z"/>
			<path style="opacity:0.3;fill:#FFFFFF;" d="M132.106,223.025H94.299c-5.939,0-11.288-4.86-11.885-10.799l-9.845-97.851
				c-0.598-5.939,3.773-10.799,9.712-10.799h37.807c5.939,0,11.288,4.859,11.885,10.799l9.845,97.851
				C142.416,218.166,138.045,223.025,132.106,223.025z"/>
			<path style="fill:#FFFFFF;" d="M198.214,227.036H158.32c-6.267,0-11.911-5.128-12.542-11.395l-10.532-104.68
				c-0.631-6.267,3.981-11.395,10.249-11.395h39.894c6.267,0,11.911,5.128,12.542,11.395l10.532,104.68
				C209.094,221.908,204.482,227.036,198.214,227.036z"/>
			<path style="opacity:0.3;fill:#FFFFFF;" d="M261.428,223.025h-37.807c-5.939,0-11.288-4.86-11.885-10.799l-9.845-97.851
				c-0.598-5.939,3.773-10.799,9.712-10.799h37.807c5.939,0,11.288,4.859,11.885,10.799l9.845,97.851
				C271.738,218.166,267.368,223.025,261.428,223.025z"/>
			<path style="opacity:0.2;fill:#FFFFFF;" d="M326.09,223.025h-37.807c-5.939,0-11.288-4.86-11.885-10.799l-9.845-97.851
				c-0.598-5.939,3.773-10.799,9.712-10.799h37.807c5.939,0,11.288,4.859,11.885,10.799l9.845,97.851
				C336.4,218.166,332.029,223.025,326.09,223.025z"/>
			<path style="opacity:0.1;fill:#FFFFFF;" d="M390.751,223.025h-37.807c-5.939,0-11.288-4.86-11.885-10.799l-9.845-97.851
				c-0.597-5.939,3.773-10.799,9.713-10.799h37.807c5.939,0,11.288,4.859,11.885,10.799l9.845,97.851
				C401.061,218.166,396.691,223.025,390.751,223.025z"/>
		</g>
		<path style="fill:#FFFFFF;" d="M245.223,135.615c-0.332-3.046-3.056-5.508-6.108-5.508c-0.735,0-1.422,0.144-2.039,0.404
			c-1.315-2.232-3.762-3.769-6.413-3.769c-3.206,0-5.66,2.249-6.024,5.254c-2.996,0.194-5.13,2.7-4.822,5.764
			c0.321,3.191,3.168,5.778,6.359,5.778h18.385c2.262,0,3.911-1.834,3.684-4.096C248.069,137.695,246.824,136.203,245.223,135.615z"
			/>
		<g>
			<path style="fill:#407BFF;" d="M181.515,125.885c-0.388-3.558-3.57-6.434-7.135-6.434c-0.859,0-1.662,0.169-2.382,0.472
				c-1.537-2.607-4.394-4.403-7.491-4.403c-3.745,0-6.611,2.627-7.036,6.138c-3.5,0.227-5.993,3.154-5.632,6.733
				c0.375,3.727,3.701,6.749,7.428,6.749h21.476c2.642,0,4.569-2.142,4.303-4.784C184.84,128.314,183.385,126.572,181.515,125.885z"
				/>
			<path style="fill:#407BFF;" d="M162.546,145.545c-0.212,0-0.425-0.076-0.596-0.229c-0.366-0.329-0.396-0.893-0.067-1.259
				l5.571-6.195c0.33-0.366,0.893-0.397,1.259-0.067c0.366,0.329,0.396,0.893,0.067,1.259l-5.571,6.195
				C163.034,145.445,162.79,145.545,162.546,145.545z"/>
			<path style="fill:#407BFF;" d="M168.866,145.545c-0.212,0-0.425-0.076-0.596-0.229c-0.366-0.33-0.396-0.893-0.067-1.259
				l5.572-6.195c0.33-0.366,0.893-0.397,1.259-0.067c0.366,0.33,0.396,0.893,0.067,1.259l-5.572,6.195
				C169.354,145.445,169.11,145.545,168.866,145.545z"/>
			<path style="fill:#407BFF;" d="M156.226,145.545c-0.212,0-0.425-0.076-0.596-0.229c-0.366-0.33-0.396-0.893-0.067-1.259
				l5.572-6.195c0.329-0.366,0.893-0.397,1.259-0.067c0.366,0.33,0.396,0.893,0.067,1.259l-5.572,6.195
				C156.713,145.445,156.47,145.545,156.226,145.545z"/>
		</g>
		<g style="opacity:0.4;">
			<path style="fill:#FFFFFF;" d="M372.546,131.447c-0.286-2.627-2.636-4.751-5.268-4.751c-0.634,0-1.227,0.124-1.758,0.348
				c-1.134-1.925-3.244-3.251-5.531-3.251c-2.765,0-4.881,1.939-5.195,4.532c-2.584,0.167-4.424,2.328-4.159,4.971
				c0.277,2.752,2.732,4.983,5.485,4.983h15.857c1.951,0,3.373-1.581,3.177-3.532C375.001,133.24,373.927,131.954,372.546,131.447z"
				/>
			<path style="fill:#FFFFFF;" d="M358.541,145.963c-0.157,0-0.314-0.056-0.44-0.169c-0.27-0.243-0.292-0.66-0.049-0.93l3.958-4.401
				c0.244-0.271,0.66-0.292,0.93-0.049c0.27,0.243,0.292,0.66,0.049,0.93l-3.958,4.401
				C358.9,145.889,358.721,145.963,358.541,145.963z"/>
			<path style="fill:#FFFFFF;" d="M363.207,145.963c-0.157,0-0.314-0.056-0.44-0.169c-0.27-0.243-0.292-0.66-0.049-0.93l3.958-4.401
				c0.244-0.271,0.66-0.292,0.93-0.049c0.271,0.243,0.292,0.66,0.049,0.93l-3.958,4.401
				C363.567,145.889,363.388,145.963,363.207,145.963z"/>
			<path style="fill:#FFFFFF;" d="M353.875,145.963c-0.157,0-0.314-0.056-0.44-0.169c-0.271-0.243-0.293-0.66-0.049-0.93
				l3.958-4.401c0.244-0.271,0.66-0.292,0.93-0.049c0.271,0.243,0.292,0.66,0.049,0.93l-3.959,4.401
				C354.234,145.889,354.055,145.963,353.875,145.963z"/>
		</g>
		<g style="opacity:0.7;">
			<path style="fill:#FFFFFF;" d="M303.523,136.293c0.281,2.797-1.758,5.064-4.554,5.064c-2.797,0-5.292-2.267-5.573-5.064
				c-0.281-2.797,1.758-5.064,4.554-5.064C300.747,131.229,303.242,133.496,303.523,136.293z"/>
			<path style="fill:#FFFFFF;" d="M299.448,146.546c-0.22,0-0.409-0.167-0.431-0.391l-0.232-2.307
				c-0.024-0.239,0.15-0.451,0.388-0.475c0.234-0.033,0.451,0.149,0.475,0.388l0.232,2.307c0.024,0.239-0.15,0.451-0.388,0.475
				C299.477,146.546,299.462,146.546,299.448,146.546z"/>
			<path style="fill:#FFFFFF;" d="M297.704,129.215c-0.22,0-0.409-0.167-0.431-0.391l-0.232-2.307
				c-0.024-0.239,0.15-0.451,0.388-0.475c0.231-0.035,0.451,0.15,0.475,0.388l0.232,2.307c0.024,0.239-0.15,0.451-0.388,0.475
				C297.733,129.215,297.719,129.215,297.704,129.215z"/>
			<path style="fill:#FFFFFF;" d="M290.948,136.727h-2.307c-0.24,0-0.434-0.194-0.434-0.434c0-0.24,0.194-0.434,0.434-0.434h2.307
				c0.24,0,0.434,0.194,0.434,0.434C291.382,136.533,291.188,136.727,290.948,136.727z"/>
			<path style="fill:#FFFFFF;" d="M308.279,136.727h-2.307c-0.24,0-0.434-0.194-0.434-0.434c0-0.24,0.194-0.434,0.434-0.434h2.307
				c0.24,0,0.434,0.194,0.434,0.434C308.713,136.533,308.519,136.727,308.279,136.727z"/>
			<path style="fill:#FFFFFF;" d="M306.102,143.67c-0.105,0-0.209-0.037-0.292-0.113l-1.796-1.631
				c-0.177-0.161-0.19-0.436-0.029-0.613c0.161-0.177,0.435-0.191,0.613-0.029l1.795,1.631c0.177,0.161,0.19,0.436,0.029,0.613
				C306.338,143.623,306.22,143.67,306.102,143.67z"/>
			<path style="fill:#FFFFFF;" d="M292.614,131.415c-0.104,0-0.208-0.037-0.292-0.113l-1.795-1.631
				c-0.177-0.161-0.19-0.436-0.029-0.613c0.161-0.178,0.436-0.19,0.613-0.029l1.795,1.631c0.177,0.161,0.191,0.436,0.029,0.613
				C292.85,131.368,292.732,131.415,292.614,131.415z"/>
			<path style="fill:#FFFFFF;" d="M292.216,143.67c-0.104,0-0.208-0.037-0.29-0.111c-0.178-0.16-0.193-0.435-0.033-0.613
				l1.467-1.631c0.161-0.179,0.435-0.193,0.613-0.033c0.178,0.16,0.193,0.435,0.033,0.613l-1.467,1.631
				C292.453,143.622,292.335,143.67,292.216,143.67z"/>
			<path style="fill:#FFFFFF;" d="M303.238,131.415c-0.103,0-0.207-0.037-0.29-0.111c-0.178-0.16-0.193-0.435-0.033-0.613
				l1.467-1.631c0.161-0.179,0.436-0.193,0.613-0.033c0.178,0.16,0.193,0.435,0.033,0.613l-1.467,1.631
				C303.475,131.367,303.356,131.415,303.238,131.415z"/>
		</g>
		<g>
			<path style="fill:#FFFFFF;" d="M114.293,134.954c-0.283-2.594-2.602-4.689-5.201-4.689c-0.626,0-1.211,0.123-1.736,0.344
				c-1.12-1.9-3.203-3.209-5.46-3.209c-2.73,0-4.819,1.914-5.128,4.474c-2.551,0.165-4.368,2.298-4.105,4.908
				c0.273,2.717,2.697,4.919,5.414,4.919h15.653c1.926,0,3.33-1.561,3.136-3.487C116.717,136.724,115.656,135.454,114.293,134.954z"
				/>
			<g>
				<path style="fill:#FFFFFF;" d="M98.695,126.605c-1.561,0.79-2.742,2.179-3.236,3.91c-1.097,0.266-2.035,0.828-2.763,1.595
					c-0.914-0.782-1.542-1.891-1.666-3.121c-0.24-2.384,1.502-4.313,3.879-4.313C96.413,124.677,97.811,125.443,98.695,126.605z"/>
				<path style="fill:#FFFFFF;" d="M94.702,122.961c-0.188,0-0.348-0.142-0.367-0.332l-0.198-1.963
					c-0.021-0.203,0.127-0.384,0.331-0.405c0.209-0.027,0.384,0.127,0.405,0.33l0.198,1.963c0.021,0.203-0.127,0.384-0.33,0.405
					C94.727,122.96,94.714,122.961,94.702,122.961z"/>
				<path style="fill:#FFFFFF;" d="M88.95,129.357h-1.963c-0.204,0-0.37-0.165-0.37-0.37s0.166-0.37,0.37-0.37h1.963
					c0.204,0,0.37,0.165,0.37,0.37S89.154,129.357,88.95,129.357z"/>
				<path style="fill:#FFFFFF;" d="M90.368,124.835c-0.089,0-0.178-0.032-0.249-0.096l-1.528-1.389
					c-0.151-0.137-0.162-0.371-0.025-0.522c0.137-0.151,0.371-0.163,0.522-0.025l1.528,1.389c0.151,0.137,0.162,0.371,0.025,0.522
					C90.569,124.794,90.469,124.835,90.368,124.835z"/>
				<path style="fill:#FFFFFF;" d="M90.029,135.268c-0.088,0-0.176-0.031-0.247-0.095c-0.152-0.137-0.164-0.37-0.028-0.522
					l1.249-1.389c0.137-0.151,0.371-0.164,0.522-0.028c0.152,0.137,0.164,0.37,0.028,0.522l-1.249,1.389
					C90.231,135.227,90.13,135.268,90.029,135.268z"/>
				<path style="fill:#FFFFFF;" d="M99.413,124.835c-0.088,0-0.176-0.031-0.247-0.095c-0.152-0.137-0.164-0.37-0.028-0.522
					l1.249-1.389c0.138-0.151,0.37-0.164,0.522-0.028c0.152,0.137,0.164,0.37,0.028,0.522l-1.249,1.389
					C99.615,124.793,99.514,124.835,99.413,124.835z"/>
			</g>
		</g>
		<path style="fill:#FFFFFF;" d="M130.537,202.708H91.78c-1.037,0-1.971-0.848-2.075-1.885l-0.391-3.891
			c-0.104-1.037,0.659-1.885,1.696-1.885h38.757c1.037,0,1.971,0.848,2.075,1.885l0.391,3.891
			C132.337,201.86,131.574,202.708,130.537,202.708z"/>
		<path style="fill:#407BFF;" d="M197.265,204.421h-42.545c-1.138,0-2.163-0.931-2.278-2.07l-0.43-4.271
			c-0.115-1.138,0.723-2.07,1.862-2.07h42.545c1.138,0,2.163,0.931,2.278,2.07l0.43,4.271
			C199.241,203.489,198.403,204.421,197.265,204.421z"/>
		<path style="fill:#FFFFFF;" d="M259.86,202.708h-38.757c-1.037,0-1.971-0.848-2.075-1.885l-0.391-3.891
			c-0.104-1.037,0.659-1.885,1.696-1.885h38.757c1.037,0,1.971,0.848,2.075,1.885l0.391,3.891
			C261.66,201.86,260.897,202.708,259.86,202.708z"/>
		<path style="opacity:0.7;fill:#FFFFFF;" d="M324.52,202.708h-38.757c-1.037,0-1.971-0.848-2.075-1.885l-0.391-3.891
			c-0.104-1.037,0.659-1.885,1.696-1.885h38.757c1.037,0,1.971,0.848,2.075,1.885l0.391,3.891
			C326.32,201.86,325.557,202.708,324.52,202.708z"/>
		<path style="opacity:0.4;fill:#FFFFFF;" d="M389.182,202.708h-38.757c-1.037,0-1.971-0.848-2.075-1.885l-0.391-3.891
			c-0.104-1.037,0.659-1.885,1.696-1.885h38.757c1.037,0,1.971,0.848,2.075,1.885l0.392,3.891
			C390.983,201.86,390.219,202.708,389.182,202.708z"/>
	</g>
</g>
<g id="Character_1_">
	<g>
		<path style="fill:#FF8B7B;" d="M368.037,167.634c2.806,4.646,5.33,9.289,7.741,14.099c2.374,4.817,4.623,9.706,6.512,14.921
			c0.242,0.644,0.469,1.305,0.684,1.981l0.329,1.004l0.164,0.502l0.12,0.403c0.046,0.168,0.095,0.341,0.13,0.507
			c0.554,2.722,0.002,4.766-0.557,6.437c-1.211,3.32-2.903,5.697-4.65,7.974c-3.549,4.475-7.472,8.145-11.825,11.543l-3.776-3.898
			c3.075-4.025,6.156-8.254,8.579-12.431c0.604-1.043,1.149-2.092,1.603-3.111c0.464-1.008,0.833-2.009,1.009-2.842
			c0.193-0.826,0.099-1.471,0.042-1.328c-0.001,0.006-0.006,0.023-0.004,0.033c0.003,0.018,0.01,0.038-0.031-0.065l-0.174-0.424
			l-0.346-0.848c-0.223-0.563-0.463-1.13-0.725-1.699c-1.998-4.552-4.361-9.12-6.784-13.65c-2.42-4.522-4.957-9.093-7.462-13.515
			L368.037,167.634z"/>
		<path style="fill:#FF8B7B;" d="M364.344,221.348l-5.69,5.03l7.918,4.997c0,0,2.331-3.778,2.228-7.277L364.344,221.348z"/>
		<polygon style="fill:#FF8B7B;" points="356.567,233.834 362.635,237.731 366.572,231.375 358.654,226.378 		"/>
		<path style="fill:#263238;" d="M334.688,135.091c-0.111,0.572-0.504,0.978-0.878,0.905c-0.374-0.072-0.588-0.595-0.477-1.168
			c0.111-0.572,0.504-0.978,0.878-0.905C334.586,133.996,334.799,134.518,334.688,135.091z"/>
		<path style="fill:#FF5652;" d="M334.237,136.079c0,0-1.941,3.05-3.682,4.366c0.83,1.141,2.635,1.043,2.635,1.043L334.237,136.079z
			"/>
		<path style="fill:#263238;" d="M337.399,132.318c0.083-0.001,0.166-0.032,0.232-0.093c0.138-0.13,0.144-0.346,0.014-0.484
			c-1.298-1.379-2.856-1.118-2.923-1.106c-0.186,0.033-0.31,0.212-0.276,0.398c0.034,0.186,0.214,0.308,0.396,0.277l0,0
			c0.051-0.009,1.269-0.199,2.305,0.901C337.215,132.283,337.307,132.319,337.399,132.318z"/>
		<path style="fill:#FF8B7B;" d="M348.399,142.014c-1.037,5.288-2.071,14.976,1.628,18.505c0,0-1.446,5.364-11.271,5.364
			c-10.804,0-4.746-4.538-4.746-4.538c4.578-3.973,5.731-8.141,4.704-12.249L348.399,142.014z"/>
		<g>
			<path style="fill:#263238;" d="M351.236,162.107c0.553-1.988,1.155-4.26-0.585-4.789c-1.915-0.581-12.075-0.396-15.418,1.355
				c-3.343,1.75-1.988,5.547-1.988,5.547L351.236,162.107z"/>
		</g>
		<path style="fill:#407BFF;" d="M386.321,405.688c-0.725,0.157-1.45,0.198-1.799-0.099c-0.146-0.125-0.294-0.364-0.166-0.795
			c0.067-0.227,0.216-0.396,0.44-0.504c0.976-0.466,3.219,0.448,3.314,0.487c0.062,0.026,0.104,0.086,0.105,0.153
			c0.002,0.068-0.036,0.13-0.096,0.159C387.777,405.256,387.049,405.531,386.321,405.688z M385.145,404.533
			c-0.074,0.016-0.141,0.038-0.201,0.066c-0.136,0.065-0.221,0.161-0.26,0.292c-0.091,0.308,0.022,0.405,0.06,0.437
			c0.389,0.331,1.832,0.026,2.849-0.381C386.903,404.705,385.787,404.394,385.145,404.533z"/>
		<path style="fill:#407BFF;" d="M388.082,405.104c-0.027,0.006-0.057,0.005-0.084-0.003c-0.817-0.239-2.565-1.481-2.587-2.3
			c-0.004-0.149,0.048-0.418,0.438-0.554c0.253-0.088,0.507-0.067,0.759,0.061c0.966,0.493,1.576,2.495,1.602,2.58
			c0.018,0.06,0.002,0.125-0.042,0.17C388.143,405.081,388.113,405.097,388.082,405.104z M386.036,402.548
			c-0.025,0.005-0.05,0.013-0.075,0.021c-0.212,0.074-0.209,0.177-0.207,0.222c0.012,0.484,1.166,1.459,2.012,1.853
			c-0.212-0.578-0.694-1.717-1.314-2.033C386.31,402.54,386.173,402.519,386.036,402.548z"/>
		<path style="fill:#407BFF;" d="M333.03,409.229c-0.928,0-1.824-0.128-2.124-0.544c-0.105-0.146-0.188-0.394,0.014-0.748
			c0.113-0.199,0.296-0.333,0.542-0.4c1.203-0.327,3.729,1.112,3.836,1.174c0.061,0.035,0.095,0.106,0.084,0.176
			s-0.066,0.126-0.135,0.14C334.786,409.118,333.894,409.229,333.03,409.229z M331.883,407.827c-0.121,0-0.232,0.012-0.331,0.039
			c-0.158,0.043-0.268,0.121-0.335,0.24c-0.121,0.213-0.077,0.318-0.033,0.379c0.336,0.467,2.163,0.478,3.507,0.288
			C334.021,408.428,332.728,407.827,331.883,407.827z"/>
		<path style="fill:#407BFF;" d="M335.213,409.029c-0.024,0-0.048-0.005-0.07-0.015c-0.872-0.392-2.6-1.955-2.468-2.772
			c0.031-0.192,0.167-0.431,0.637-0.478c0.351-0.036,0.669,0.063,0.949,0.293c0.919,0.755,1.114,2.702,1.122,2.785
			c0.006,0.061-0.021,0.12-0.071,0.155C335.283,409.018,335.248,409.029,335.213,409.029z M333.45,406.099
			c-0.034,0-0.068,0.002-0.103,0.005c-0.308,0.031-0.328,0.153-0.334,0.192c-0.079,0.491,1.095,1.719,1.985,2.254
			c-0.093-0.569-0.35-1.734-0.954-2.229C333.862,406.172,333.667,406.099,333.45,406.099z"/>
		<polygon style="fill:#FF8B7B;" points="343.161,408.858 335.933,408.858 335.213,392.119 342.441,392.119 		"/>
		<polygon style="fill:#FF8B7B;" points="396.139,403.184 389.074,404.713 381.982,389.123 389.046,387.593 		"/>
		<path style="fill:#263238;" d="M388.395,404.004l7.936-1.718c0.289-0.063,0.582,0.084,0.706,0.352l2.755,5.977
			c0.286,0.62-0.093,1.347-0.762,1.48c-2.781,0.552-4.162,0.681-7.652,1.437c-2.147,0.465-6.995,1.646-9.96,2.288
			c-2.9,0.628-3.987-2.206-2.831-2.735c5.185-2.369,7.352-4.455,8.755-6.399C387.596,404.336,387.973,404.096,388.395,404.004z"/>
		<path style="fill:#263238;" d="M335.981,408.021h7.893c0.296,0,0.551,0.205,0.615,0.494l1.428,6.425
			c0.148,0.666-0.358,1.297-1.04,1.286c-2.847-0.048-6.962-0.215-10.541-0.215c-4.185,0-4.113,0.228-9.02,0.228
			c-2.967,0-3.791-3-2.549-3.272c5.655-1.237,6.586-1.37,11.472-4.382C334.771,408.257,335.357,408.021,335.981,408.021z"/>
		<path style="fill:#FF8B7B;" d="M328.563,175.735c-2.758,5.105-5.661,9.982-8.77,14.838c-3.132,4.832-6.388,9.591-10.175,14.206
			c-0.458,0.578-0.984,1.15-1.473,1.724l-0.759,0.864l-0.886,0.913c-0.591,0.596-1.133,1.076-1.707,1.612l-1.686,1.455
			c-2.234,1.896-4.496,3.654-6.78,5.383c-4.57,3.448-9.235,6.688-14.069,9.756l-3.405-4.225c3.938-4.045,7.973-8.008,11.961-11.93
			c1.99-1.961,3.977-3.923,5.881-5.87c0.931-0.976,1.865-1.965,2.645-2.871l0.54-0.653l0.587-0.771
			c0.391-0.53,0.794-1.022,1.176-1.58c3.107-4.335,6.037-9.043,8.896-13.781c2.854-4.735,5.69-9.589,8.426-14.351L328.563,175.735z"
			/>
		<g>
			<g>
				<path style="fill:#407BFF;" d="M365.196,162.153c6.774,1.553,14.741,25.872,14.741,25.872l-11.584,7.58
					c0,0-7.374-11.314-11.206-19.382C353.132,167.77,358.27,160.565,365.196,162.153z"/>
			</g>
			<g style="opacity:0.7;">
				<path style="fill:#FFFFFF;" d="M365.196,162.153c6.774,1.553,14.741,25.872,14.741,25.872l-11.584,7.58
					c0,0-7.374-11.314-11.206-19.382C353.132,167.77,358.27,160.565,365.196,162.153z"/>
			</g>
		</g>
		<path style="opacity:0.5;fill:#407BFF;" d="M361.353,174.62c-0.59-0.771-2.2,1-3.41,3.229c1.676,3.324,3.8,7,5.676,10.143
			C364.791,181.916,362.877,176.573,361.353,174.62z"/>
		<g>
			<path style="fill:#407BFF;" d="M324.703,162.525c0,0-7.693,8.69-0.428,62.475c11.649,0,32.992,0,38.66,0
				c0.266-5.934-3.462-34.885,2.261-62.847c0,0-6.627-1.33-12.942-1.634c-4.94-0.238-12.091-0.396-16.434,0.001
				C330.095,161.042,324.703,162.525,324.703,162.525z"/>
			<path style="opacity:0.7;fill:#FFFFFF;" d="M324.703,162.525c0,0-7.693,8.69-0.428,62.475c11.649,0,32.992,0,38.66,0
				c0.266-5.934-3.462-34.885,2.261-62.847c0,0-6.627-1.33-12.942-1.634c-4.94-0.238-12.091-0.396-16.434,0.001
				C330.095,161.042,324.703,162.525,324.703,162.525z"/>
		</g>
		<path style="opacity:0.5;fill:#407BFF;" d="M321.427,177.325c-0.333,4.81-0.41,11.105,0.038,19.296
			c4.924-3.159,9.448-11.572,9.051-17.128L321.427,177.325z"/>
		<g>
			<polygon style="fill:#407BFF;" points="177.981,163.595 176.811,165.484 167.594,159.08 168.191,158.117 			"/>
			<polygon style="fill:#263238;" points="178.288,163.099 176.503,165.98 266.957,227.847 273.966,216.532 			"/>
			<polygon style="opacity:0.2;fill:#FFFFFF;" points="177.956,163.636 176.836,165.443 268.263,225.738 272.66,218.64 			"/>
			<polygon style="fill:#263238;" points="177.583,164.238 177.209,164.842 269.727,223.374 271.195,221.004 			"/>
			<path style="fill:#263238;" d="M275.346,238.207c-0.987,0-1.941-0.266-2.783-0.787l0.651-1.053
				c0.997,0.618,2.208,0.764,3.404,0.417c1.223-0.355,2.286-1.182,2.995-2.326c0.708-1.143,0.974-2.463,0.748-3.716
				c-0.222-1.229-0.893-2.246-1.889-2.863l-8.337-5.165l0.651-1.052l8.337,5.165c1.299,0.804,2.17,2.117,2.455,3.695
				c0.281,1.555-0.044,3.184-0.914,4.588c-0.87,1.404-2.184,2.421-3.701,2.861C276.424,238.13,275.88,238.207,275.346,238.207z"/>
		</g>
		<g>
			<path style="fill:#407BFF;" d="M335.299,167.328c3.804,9.208-19.196,32.216-19.196,32.216l-11.906-8.996
				c0,0,8.232-12.06,11.62-20.333C320.002,159.995,332.404,160.318,335.299,167.328z"/>
			<path style="opacity:0.7;fill:#FFFFFF;" d="M335.299,167.328c3.804,9.208-19.196,32.216-19.196,32.216l-11.906-8.996
				c0,0,8.232-12.06,11.62-20.333C320.002,159.995,332.404,160.318,335.299,167.328z"/>
		</g>
		<path style="fill:#263238;" d="M307.98,187.202c2.514,2.449,8.09,7.766,10.652,9.286c0.383,0.227,0.512,0.714,0.303,1.107
			c-0.848,1.593-2.774,3.926-4.054,4.118c-1.514,0.228-13.175-7.477-13.377-9.049c-0.138-1.071,2.328-3.801,3.913-5.431
			C306.116,186.514,307.261,186.502,307.98,187.202z"/>
		<path style="fill:#263238;" d="M366.089,190.594c3.135-1.577,9.98-5.114,12.254-7.04c0.339-0.288,0.842-0.251,1.145,0.075
			c1.229,1.322,2.806,3.902,2.57,5.175c-0.279,1.505-11.366,10.015-12.918,9.694c-1.057-0.219-2.833-3.441-3.858-5.471
			C364.831,192.132,365.193,191.045,366.089,190.594z"/>
		<path style="fill:#FF8B7B;" d="M281.208,220.592l-7.279,2.277l3.305,7.179c0,0,6.327-0.836,7.577-5.949L281.208,220.592z"/>
		<polygon style="fill:#FF8B7B;" points="270.617,226.685 273.267,231.437 277.234,230.048 273.93,222.869 		"/>
		<g>
			<polygon style="opacity:0.2;" points="335.215,392.124 335.585,400.752 342.816,400.752 342.446,392.124 			"/>
			<polygon style="opacity:0.2;" points="389.049,387.597 381.982,389.127 385.642,397.163 392.709,395.633 			"/>
		</g>
		<path style="fill:#FF8B7B;" d="M354.014,137.574c-1.793,6.946-2.489,11.102-6.738,14.023c-6.391,4.393-14.445-0.506-14.763-7.848
			c-0.287-6.608,2.693-16.857,10.116-18.322C349.941,123.984,355.807,130.628,354.014,137.574z"/>
		<path style="fill:#263238;" d="M337.739,139.244c-1.017-2.047-0.905-4.941,1.206-6.926c-2.222-1.151-4.279-5.096-2.139-7.374
			c-5.75-1.333-2.568-7.305,6.37-6.722c8.875,0.579,1.936,4.348,1.936,4.348s19.222,1.486,12.278,8.486
			c3.056,1.833,3.334,7.983-0.986,10.958c-6.958,4.792-4.837,10.158-10.167,9.194C341.366,150.327,337.168,144.89,337.739,139.244z"
			/>
		<path style="fill:#FF8B7B;" d="M340.479,138.201c-0.203,1.623-1.462,3.285-2.624,3.915c-1.794,0.973-2.851,0.244-2.88-1.613
			c-0.027-1.671,0.741-4.384,2.503-5.019C339.214,134.858,340.712,136.345,340.479,138.201z"/>
		<path style="fill:#263238;" d="M337.989,225c0,0,8.203,55.238,12.706,75.932c4.931,22.662,31.3,95.31,31.3,95.31l12.939-2.801
			c0,0-19.741-68.018-22.555-90.455c-3.054-24.352-9.444-77.986-9.444-77.986H337.989z"/>
		<g>
			<path style="fill:#407BFF;" d="M378.538,390.442c-0.055,0.012,2.77,6.16,2.77,6.16l14.557-3.152l-1.586-5.857L378.538,390.442z"
				/>
			<path style="opacity:0.7;fill:#FFFFFF;" d="M378.538,390.442c-0.055,0.012,2.77,6.16,2.77,6.16l14.557-3.152l-1.586-5.857
				L378.538,390.442z"/>
		</g>
		<path style="opacity:0.3;" d="M343.173,244.681c9.485,1.86,8.481,37.231,7.34,55.423c-2.735-12.859-6.74-37.604-9.475-55.167
			C341.668,244.622,342.376,244.524,343.173,244.681z"/>
		<path style="fill:#263238;" d="M324.275,225c0,0-0.995,54.042-0.209,76.084c0.818,22.927,8.826,97.996,8.826,97.996h12.245
			c0,0,0.449-73.73,0.994-96.247c0.594-24.547,3.558-77.834,3.558-77.834H324.275z"/>
		<g>
			<path style="fill:#407BFF;" d="M330.534,392.712c-0.057,0,0.692,6.575,0.692,6.575h14.895l0.401-6.028L330.534,392.712z"/>
			<path style="opacity:0.7;fill:#FFFFFF;" d="M330.534,392.712c-0.057,0,0.692,6.575,0.692,6.575h14.895l0.401-6.028
				L330.534,392.712z"/>
		</g>
	</g>
</g>
</svg>
